<svg id="Layer_1" data-name="Layer 1" xmlns="http://www.w3.org/2000/svg" viewBox="0 0 1283 471.46">
    <defs>
        <style>
            .cls-1,.cls-19{fill:#fff;}.cls-10,.cls-11,.cls-12,.cls-13,.cls-14,.cls-15,.cls-16,.cls-17,.cls-2,.cls-20,.cls-3,.cls-4,.cls-5,.cls-6,.cls-7,.cls-8,.cls-9{fill:none;}.cls-10,.cls-11,.cls-12,.cls-13,.cls-14,.cls-15,.cls-16,.cls-17,.cls-2,.cls-3,.cls-4,.cls-5,.cls-6,.cls-7,.cls-8,.cls-9{stroke:#ee741e;}.cls-10,.cls-11,.cls-12,.cls-13,.cls-14,.cls-15,.cls-16,.cls-17,.cls-19,.cls-2,.cls-20,.cls-3,.cls-4,.cls-5,.cls-6,.cls-7,.cls-8,.cls-9{stroke-miterlimit:10;}.cls-2,.cls-20{stroke-width:0.93px;}.cls-3{stroke-width:0.89px;}.cls-4{stroke-width:1.03px;}.cls-5{stroke-width:0.92px;}.cls-6{stroke-width:0.92px;}.cls-7{stroke-width:0.91px;}.cls-8{stroke-width:0.94px;}.cls-9{stroke-width:0.94px;}.cls-10{stroke-width:0.94px;}.cls-11{stroke-width:0.95px;}.cls-12{stroke-width:0.95px;}.cls-13{stroke-width:0.95px;}.cls-14{stroke-width:0.95px;}.cls-15{stroke-width:0.95px;}.cls-16{stroke-width:0.98px;}.cls-17{stroke-width:1px;}.cls-18{fill:#ee741e;}.cls-19,.cls-20{stroke:#ed7320;}.cls-19{stroke-width:1.4px;}
        </style>
    </defs>
    <rect class="cls-1" width="1283" height="471.46"/>
    <line class="cls-2" x1="561.56" y1="286.96" x2="956.16" y2="284.17"/>
    <line class="cls-2" x1="561.56" y1="295.34" x2="957.09" y2="294.41"/>
    <polygon class="cls-2" points="235.82 418.65 235.82 425.17 391.24 429.82 391.24 423.24 235.82 418.65"/>
    <line class="cls-2" x1="325.16" y1="396.32" x2="235.82" y2="418.65"/>
    <line class="cls-2" x1="391.24" y1="422.96" x2="481.05" y2="388.41"/>
    <line class="cls-2" x1="391.71" y1="429.36" x2="464.3" y2="400.51"/>
    <polygon class="cls-2" points="464.72 396.32 464.72 404.15 528.49 404.15 528.49 397.15 464.72 396.32"/>
    <line class="cls-2" x1="482.91" y1="383.75" x2="482.91" y2="392.46"/>
    <path class="cls-2" d="M476.46,389.74" transform="translate(1.64)"/>
    <line class="cls-2" x1="392.17" y1="387.48" x2="480.66" y2="388.11"/>
    <path class="cls-2"
          d="M351.91,375.61v-3.38l24.2-3.37v2.44l25.45.35a.12.12,0,0,1,0,.23L378,382.82l-33.5-4.65c-.16,0-.16-.9,0-.93l31.64-5.94"
          transform="translate(1.64)"/>
    <polyline class="cls-2"
              points="326.56 350.25 326.56 396.32 331.62 396.32 331.62 394.01 341.45 395.85 341.45 399.57 345.17 400.5 353.55 397.71 353.55 394.94 353.55 379.31"/>
    <polygon class="cls-3" points="340.99 369.79 331.68 367.93 331.68 387.21 340.99 389.75 340.99 369.79"/>
    <path class="cls-2"
          d="M347.86,367.93l33.83-4.65s4.66-17.68-11.16-16.75-22.07,3.47-22.67,12S347.86,367.93,347.86,367.93Z"
          transform="translate(1.64)"/>
    <path class="cls-2"
          d="M352.45,365.14l25.5-3.51s3.51-13.33-8.42-12.63-16.63,2.62-17.08,9S352.45,365.14,352.45,365.14Z"
          transform="translate(1.64)"/>
    <path class="cls-2" d="M358.43,322.33V340s-25.13-3.72-37.23,7.45l20.47,3.79s17.49-17.82,44.11-4.76"
          transform="translate(1.64)"/>
    <line class="cls-2" x1="368.82" y1="322.33" x2="368.82" y2="341.71"/>
    <path class="cls-2" d="M355.63,314.88h13.54a.41.41,0,0,0,.21-.76c-2.2-1.3-7.52-3.45-14.2.76"
          transform="translate(1.64)"/>
    <polyline class="cls-2" points="360.06 315.81 358.15 322.33 370.21 322.33 368.44 314.88"/>
    <path class="cls-2"
          d="M383.55,380s.53,2.27,4,7.18.67,23.53.67,23.53h-5.88s3-15.93.72-21c-1.78-3.6-2.29-3.19-2.29-3.19s1.28,1.89,1.57,7.46a108.72,108.72,0,0,1-.64,13.94l-4.65.78V388.41c0-5.59-1.86-1.86-8.38,1.86-7.44,7.44-.93,21.4-.93,21.4s-5.58.93-6.51.93c-3.72-17.68,0-25.12,4.65-27s4.66-3.72,4.66-3.72"
          transform="translate(1.64)"/>
    <polygon class="cls-2" points="339.59 306.51 557.37 305.58 557.37 307.44 339.59 308.42 339.59 306.51"/>
    <polyline class="cls-2" points="339.59 306.51 431.73 271.14 561.09 270.21"/>
    <polyline class="cls-2"
              points="562.95 217.16 561.09 302.78 569.47 302.78 565.31 306.51 565.31 312.4 347.21 312.4 347.21 308.42"/>
    <polygon class="cls-2" points="407.53 370.72 407.53 315.68 445.8 315.68 444.74 370.72 407.53 370.72"/>
    <polygon class="cls-2" points="402.41 373.05 402.41 315.68 450.46 315.68 449.12 373.05 402.41 373.05"/>
    <line class="cls-2" x1="547.13" y1="378.17" x2="395.43" y2="375.38"/>
    <polyline class="cls-2" points="553.36 312.4 553.36 382.9 691.39 386.55"/>
    <polyline class="cls-2" points="536.22 389.34 687.66 393.99 686.1 396.32 736.06 396.78 733.9 389.75 752.81 390.44"/>
    <polyline class="cls-2" points="535.97 396.32 685.8 400.5 686.1 396.32"/>
    <path class="cls-2" d="M734.42,395.28" transform="translate(1.64)"/>
    <polyline class="cls-2" points="736.06 396.78 746.06 396.32 748.84 405.68 530.38 397.71"/>
    <polyline class="cls-2"
              points="748.84 405.68 748.84 412.56 530.38 404.23 530.38 397.71 535.97 396.32 536.22 389.34 547.13 384.11 547.13 378.17 528.49 384.59 528.49 394.25 479.19 392.32"/>
    <polygon class="cls-2"
             points="617.86 264.63 608.09 264.63 598.32 264.63 598.32 229.26 617.86 229.26 617.86 264.63"/>
    <polygon class="cls-2" points="639.27 264.63 629.5 264.63 619.72 264.63 619.72 229.26 639.27 229.26 639.27 264.63"/>
    <line class="cls-2" x1="629.7" y1="229.73" x2="629.7" y2="264.16"/>
    <line class="cls-2" x1="619.72" y1="240.87" x2="638.8" y2="240.87"/>
    <line class="cls-2" x1="619.87" y1="252.44" x2="638.8" y2="252.45"/>
    <line class="cls-2" x1="608.3" y1="229.73" x2="608.3" y2="264.16"/>
    <line class="cls-2" x1="598.32" y1="240.87" x2="617.4" y2="240.87"/>
    <line class="cls-2" x1="598.32" y1="252.44" x2="617.4" y2="252.45"/>
    <polygon class="cls-2" points="591.8 224.61 592.73 227.4 644.7 227.4 645.78 224.61 591.8 224.61"/>
    <polyline class="cls-2" points="594.33 227.4 594.33 266.92 597.21 266.92 597.21 227.4"/>
    <polyline class="cls-2" points="640.87 227.4 640.87 266.92 643.75 266.92 643.75 227.4"/>
    <polygon class="cls-2" points="591.8 266.92 645.78 266.92 645.78 269.16 591.8 269.69 591.8 266.92"/>
    <polygon class="cls-2"
             points="730.77 261.78 720.61 261.78 710.45 261.78 710.45 226.42 730.77 226.42 730.77 261.78"/>
    <polygon class="cls-2" points="753.02 261.78 742.86 261.78 732.7 261.78 732.7 226.42 753.02 226.42 753.02 261.78"/>
    <line class="cls-2" x1="743.07" y1="226.88" x2="743.07" y2="261.32"/>
    <line class="cls-2" x1="732.7" y1="238.03" x2="752.53" y2="238.03"/>
    <line class="cls-2" x1="732.85" y1="249.59" x2="752.53" y2="249.61"/>
    <line class="cls-2" x1="720.82" y1="226.88" x2="720.82" y2="261.32"/>
    <line class="cls-2" x1="710.45" y1="238.03" x2="730.28" y2="238.03"/>
    <line class="cls-2" x1="710.45" y1="249.59" x2="730.28" y2="249.61"/>
    <polygon class="cls-2" points="703.68 221.76 704.64 224.56 758.66 224.56 759.79 221.76 703.68 221.76"/>
    <polyline class="cls-2" points="706.31 224.56 706.31 264.07 709.3 264.07 709.3 224.56"/>
    <polyline class="cls-2" points="754.68 224.56 754.68 264.07 757.67 264.07 757.67 224.56"/>
    <polygon class="cls-2" points="703.68 264.07 759.79 264.07 759.79 266.31 703.68 266.85 703.68 264.07"/>
    <polygon class="cls-2" points="858.65 260.7 847.65 260.7 836.65 260.7 836.65 224.28 858.65 224.28 858.65 260.7"/>
    <polygon class="cls-2" points="882.75 260.7 871.75 260.7 860.75 260.7 860.75 224.28 882.75 224.28 882.75 260.7"/>
    <line class="cls-2" x1="871.98" y1="224.76" x2="871.98" y2="260.22"/>
    <line class="cls-2" x1="860.75" y1="236.24" x2="882.23" y2="236.24"/>
    <line class="cls-2" x1="860.92" y1="248.15" x2="882.23" y2="248.16"/>
    <line class="cls-2" x1="847.88" y1="224.76" x2="847.88" y2="260.22"/>
    <line class="cls-2" x1="836.65" y1="236.24" x2="858.13" y2="236.24"/>
    <line class="cls-2" x1="836.65" y1="248.15" x2="858.13" y2="248.16"/>
    <polygon class="cls-2" points="829.32 219.49 830.37 222.36 888.86 222.36 890.09 219.49 829.32 219.49"/>
    <polyline class="cls-2" points="832.16 222.36 832.16 263.06 835.41 263.06 835.41 222.36"/>
    <polyline class="cls-2" points="884.55 222.36 884.55 263.06 887.79 263.06 887.79 222.36"/>
    <polygon class="cls-2" points="829.32 263.06 890.09 263.06 890.09 265.37 829.32 265.92 829.32 263.06"/>
    <rect class="cls-2" x="735.13" y="314.88" width="18.61" height="41.88"/>
    <line class="cls-2" x1="744.43" y1="314.88" x2="744.78" y2="356.76"/>
    <line class="cls-2" x1="735.13" y1="325.28" x2="753.74" y2="325.28"/>
    <line class="cls-2" x1="735.13" y1="335.31" x2="753.74" y2="335.31"/>
    <line class="cls-2" x1="735.13" y1="345.13" x2="753.74" y2="345.13"/>
    <rect class="cls-2" x="755.6" y="314.88" width="18.61" height="41.88"/>
    <line class="cls-2" x1="764.91" y1="314.88" x2="765.26" y2="356.76"/>
    <line class="cls-2" x1="755.6" y1="325.28" x2="774.22" y2="325.28"/>
    <line class="cls-2" x1="755.6" y1="335.31" x2="774.22" y2="335.31"/>
    <line class="cls-2" x1="755.6" y1="345.13" x2="774.22" y2="345.13"/>
    <rect class="cls-2" x="732.34" y="313.02" width="44.67" height="45.6"/>
    <rect class="cls-2" x="596.23" y="314.75" width="16.39" height="38.89"/>
    <line class="cls-2" x1="604.43" y1="314.75" x2="604.73" y2="353.64"/>
    <line class="cls-2" x1="596.23" y1="324.41" x2="612.62" y2="324.41"/>
    <line class="cls-2" x1="596.23" y1="333.72" x2="612.62" y2="333.72"/>
    <line class="cls-2" x1="596.23" y1="342.84" x2="612.62" y2="342.84"/>
    <rect class="cls-2" x="614.26" y="314.75" width="16.39" height="38.89"/>
    <line class="cls-2" x1="622.46" y1="314.75" x2="622.76" y2="353.64"/>
    <line class="cls-2" x1="614.26" y1="324.41" x2="630.65" y2="324.41"/>
    <line class="cls-2" x1="614.26" y1="333.72" x2="630.65" y2="333.72"/>
    <line class="cls-2" x1="614.26" y1="342.84" x2="630.65" y2="342.84"/>
    <rect class="cls-2" x="594.6" y="313.02" width="37.69" height="42.35"/>
    <rect class="cls-2" x="855.29" y="317.67" width="19.63" height="41.88"/>
    <line class="cls-2" x1="865.1" y1="317.67" x2="865.46" y2="359.56"/>
    <line class="cls-2" x1="855.29" y1="328.08" x2="874.91" y2="328.08"/>
    <line class="cls-2" x1="855.29" y1="338.11" x2="874.91" y2="338.11"/>
    <line class="cls-2" x1="855.29" y1="347.92" x2="874.91" y2="347.92"/>
    <rect class="cls-2" x="876.87" y="317.67" width="19.63" height="41.88"/>
    <line class="cls-2" x1="886.69" y1="317.67" x2="887.05" y2="359.56"/>
    <line class="cls-2" x1="876.87" y1="328.08" x2="896.5" y2="328.08"/>
    <line class="cls-2" x1="876.87" y1="338.11" x2="896.5" y2="338.11"/>
    <line class="cls-2" x1="876.87" y1="347.92" x2="896.5" y2="347.92"/>
    <rect class="cls-2" x="853.32" y="315.81" width="45.14" height="45.6"/>
    <rect class="cls-2" x="696.97" y="313.95" width="22.34" height="49.33"/>
    <rect class="cls-2" x="692.32" y="310.23" width="31.64" height="67.94"/>
    <rect class="cls-2" x="692.32" y="378.17" width="31.64" height="8.38"/>
    <polyline class="cls-2" points="695.06 386.55 691.39 391.33 719.31 391.2 717.68 386.55"/>
    <rect class="cls-2" x="730.47" y="306.51" width="13.03" height="4.65"/>
    <circle class="cls-2" cx="722.1" cy="340.01" r="0.93"/>
    <path class="cls-2" d="M719.53,342.8" transform="translate(1.64)"/>
    <path class="cls-2" d="M720.46,342.8v1.87a.93.93,0,0,1-.93.93h-4.65v-.94h5.58" transform="translate(1.64)"/>
    <polyline class="cls-2" points="688.65 386.47 688.65 306.51 727.92 306.51 727.92 388.94"/>
    <path class="cls-2"
          d="M751.3,373.52h14.34a.09.09,0,0,1,.08.14c-.9,1.08-6.79,7.51-14.46-.05A.05.05,0,0,1,751.3,373.52Z"
          transform="translate(1.64)"/>
    <path class="cls-2" d="M765.83,373.52s.23,1.86-.7,18.61c-8.37,4.65-14-1.69-14-1.69V373.52"
          transform="translate(1.64)"/>
    <line class="cls-2" x1="385.26" y1="346.49" x2="385.26" y2="371.4"/>
    <line class="cls-2" x1="345.17" y1="351.18" x2="345.17" y2="400.04"/>
    <path class="cls-2" d="M749.31,185.52,904.73,179l79.11,14.89L816,199.48l-294.52,8.37s0,0,0,0l52-16.7,157.81-4.6"
          transform="translate(1.64)"/>
    <polygon class="cls-4" points="732.8 156.42 749.82 156.67 750.95 189.24 732.8 189.24 732.8 156.42"/>
    <polygon class="cls-2" points="526.66 210.65 526.66 215.38 985.48 201.3 985.48 197.03 526.66 210.65"/>
    <polyline class="cls-2" points="961.16 202.04 985.48 207.85 992 194.83 982.36 193.31"/>
    <polyline class="cls-2" points="522.93 207.85 522.93 216.8 526.66 218.37 526.66 222.92 545.6 215.39"/>
    <polyline class="cls-2" points="569.47 302.78 956.63 301.85 954.77 202.27"/>
    <path class="cls-2" d="M947.54,301.85c.39.93-.38,94.93-.38,94.93l-182-4.65" transform="translate(1.64)"/>
    <polyline class="cls-2" points="939.88 396.78 940.81 409.81 775.7 406.38"/>
    <polyline class="cls-2" points="956.69 288.36 1060.62 315.81 1057.63 324.41 956.5 296.04"/>
    <polyline class="cls-2" points="1028.18 316.74 1034.81 406.09 985.48 407.87"/>
    <line class="cls-2" x1="1031.15" y1="405.84" x2="1031.15" y2="415.98"/>
    <line class="cls-2" x1="562.84" y1="222.36" x2="954.7" y2="212.83"/>
    <line class="cls-2" x1="561.56" y1="275.79" x2="955.63" y2="273.32"/>
    <line class="cls-2" x1="562.68" y1="229.73" x2="594.13" y2="229.26"/>
    <line class="cls-2" x1="643.75" y1="229.26" x2="706.74" y2="228.33"/>
    <line class="cls-2" x1="757.67" y1="226.88" x2="831.58" y2="224.76"/>
    <line class="cls-2" x1="887.79" y1="224.28" x2="954.7" y2="222.36"/>
    <line class="cls-2" x1="562.68" y1="239.03" x2="594.13" y2="238.57"/>
    <line class="cls-2" x1="643.75" y1="238.57" x2="706.74" y2="237.64"/>
    <line class="cls-2" x1="757.67" y1="236.19" x2="831.58" y2="234.07"/>
    <line class="cls-2" x1="887.79" y1="233.59" x2="954.7" y2="231.67"/>
    <line class="cls-2" x1="562.68" y1="250.2" x2="594.13" y2="249.74"/>
    <line class="cls-2" x1="643.75" y1="249.74" x2="706.74" y2="248.8"/>
    <line class="cls-2" x1="757.67" y1="247.36" x2="831.58" y2="245.23"/>
    <line class="cls-2" x1="887.79" y1="244.76" x2="954.7" y2="242.84"/>
    <line class="cls-2" x1="562.68" y1="260.44" x2="594.13" y2="259.97"/>
    <line class="cls-2" x1="643.75" y1="259.97" x2="706.74" y2="259.04"/>
    <line class="cls-2" x1="757.67" y1="257.6" x2="831.58" y2="255.47"/>
    <line class="cls-2" x1="887.79" y1="254.99" x2="954.7" y2="253.08"/>
    <line class="cls-5" x1="561.75" y1="268.81" x2="592.27" y2="268.35"/>
    <line class="cls-6" x1="645.32" y1="268.35" x2="829.59" y2="265.56"/>
    <line class="cls-7" x1="890.09" y1="263.37" x2="954.7" y2="261.45"/>
    <line class="cls-2" x1="574.06" y1="302.78" x2="574.06" y2="383.4"/>
    <line class="cls-2" x1="580.32" y1="302.78" x2="580.32" y2="383.25"/>
    <line class="cls-2" x1="587.43" y1="302.74" x2="587.43" y2="383.4"/>
    <line class="cls-2" x1="559.84" y1="312.56" x2="559.84" y2="383.25"/>
    <line class="cls-2" x1="566.96" y1="305.11" x2="566.96" y2="383.4"/>
    <line class="cls-2" x1="634.55" y1="302.78" x2="634.61" y2="385.15"/>
    <line class="cls-2" x1="640.81" y1="302.78" x2="640.81" y2="385.15"/>
    <line class="cls-2" x1="647.93" y1="302.74" x2="647.93" y2="385.15"/>
    <line class="cls-2" x1="655.03" y1="302.78" x2="655.03" y2="386.08"/>
    <line class="cls-2" x1="661.29" y1="302.78" x2="661.29" y2="386.08"/>
    <line class="cls-2" x1="668.4" y1="302.74" x2="668.4" y2="386.08"/>
    <line class="cls-2" x1="674.57" y1="302.78" x2="674.57" y2="386.08"/>
    <line class="cls-2" x1="680.83" y1="302.78" x2="680.83" y2="386.08"/>
    <line class="cls-2" x1="594.53" y1="355.38" x2="594.53" y2="384.22"/>
    <line class="cls-2" x1="600.79" y1="355.38" x2="600.79" y2="384.16"/>
    <line class="cls-2" x1="607.91" y1="355.37" x2="607.91" y2="384.22"/>
    <line class="cls-2" x1="615.01" y1="355.38" x2="615.01" y2="384.22"/>
    <line class="cls-2" x1="621.27" y1="355.38" x2="621.27" y2="384.16"/>
    <line class="cls-2" x1="628.1" y1="355.37" x2="628.1" y2="385.15"/>
    <line class="cls-2" x1="594.53" y1="302.75" x2="594.53" y2="312.56"/>
    <line class="cls-2" x1="600.79" y1="302.75" x2="600.79" y2="312.54"/>
    <line class="cls-2" x1="607.91" y1="302.74" x2="607.91" y2="312.56"/>
    <line class="cls-2" x1="615.01" y1="302.75" x2="615.01" y2="312.56"/>
    <line class="cls-2" x1="621.27" y1="302.75" x2="621.27" y2="312.54"/>
    <line class="cls-2" x1="628.38" y1="302.74" x2="628.38" y2="312.56"/>
    <line class="cls-2" x1="802.07" y1="301.86" x2="802.07" y2="392.59"/>
    <line class="cls-8" x1="808.33" y1="301.86" x2="808.33" y2="393.35"/>
    <line class="cls-8" x1="815.45" y1="301.81" x2="815.45" y2="393.53"/>
    <line class="cls-8" x1="822.55" y1="301.86" x2="822.55" y2="393.53"/>
    <line class="cls-9" x1="828.81" y1="301.86" x2="828.81" y2="393.53"/>
    <line class="cls-8" x1="835.92" y1="301.81" x2="835.92" y2="393.53"/>
    <line class="cls-10" x1="842.09" y1="301.86" x2="842.09" y2="393.53"/>
    <line class="cls-9" x1="848.35" y1="301.86" x2="848.35" y2="393.53"/>
    <line class="cls-2" x1="855.47" y1="301.81" x2="855.47" y2="315.35"/>
    <line class="cls-2" x1="780.67" y1="302.32" x2="780.67" y2="392.59"/>
    <line class="cls-2" x1="787.86" y1="302.32" x2="787.86" y2="392.43"/>
    <line class="cls-2" x1="794.97" y1="302.32" x2="794.97" y2="392.59"/>
    <line class="cls-2" x1="755.54" y1="358.16" x2="755.54" y2="373.05"/>
    <line class="cls-2" x1="762.73" y1="358.18" x2="762.73" y2="373.05"/>
    <line class="cls-2" x1="769.84" y1="359.09" x2="769.84" y2="391.66"/>
    <line class="cls-2" x1="775.08" y1="359.11" x2="775.08" y2="392.59"/>
    <line class="cls-2" x1="734.14" y1="359.09" x2="734.14" y2="389.8"/>
    <line class="cls-2" x1="741.33" y1="359.09" x2="741.33" y2="389.75"/>
    <line class="cls-2" x1="748.44" y1="358.16" x2="748.44" y2="389.8"/>
    <line class="cls-2" x1="757.4" y1="302.32" x2="757.4" y2="312.56"/>
    <line class="cls-2" x1="764.59" y1="302.32" x2="764.59" y2="312.56"/>
    <line class="cls-2" x1="771.71" y1="302.62" x2="771.71" y2="313.19"/>
    <line class="cls-2" x1="736" y1="302.62" x2="736" y2="306.04"/>
    <line class="cls-2" x1="743.19" y1="302.62" x2="743.19" y2="306.97"/>
    <line class="cls-2" x1="750.3" y1="302.32" x2="750.3" y2="312.58"/>
    <line class="cls-2" x1="882.11" y1="301.82" x2="882.11" y2="315.35"/>
    <line class="cls-2" x1="888.37" y1="301.82" x2="888.37" y2="315.32"/>
    <line class="cls-2" x1="895.49" y1="301.81" x2="895.49" y2="315.35"/>
    <line class="cls-2" x1="902.59" y1="301.86" x2="902.59" y2="395.39"/>
    <line class="cls-2" x1="908.85" y1="301.86" x2="908.85" y2="395.21"/>
    <line class="cls-2" x1="915.96" y1="301.81" x2="915.96" y2="395.39"/>
    <line class="cls-2" x1="922.13" y1="301.86" x2="922.13" y2="396.32"/>
    <line class="cls-2" x1="928.39" y1="301.86" x2="928.39" y2="396.14"/>
    <line class="cls-2" x1="935.51" y1="301.81" x2="935.51" y2="396.32"/>
    <line class="cls-2" x1="943.88" y1="301.81" x2="943.88" y2="396.32"/>
    <line class="cls-2" x1="861.64" y1="301.96" x2="861.64" y2="315.35"/>
    <line class="cls-2" x1="867.9" y1="301.96" x2="867.9" y2="315.32"/>
    <line class="cls-2" x1="875.01" y1="301.95" x2="875.01" y2="315.35"/>
    <line class="cls-11" x1="855.47" y1="360.95" x2="855.47" y2="394.46"/>
    <line class="cls-12" x1="882.11" y1="361.9" x2="882.11" y2="395.39"/>
    <line class="cls-13" x1="888.37" y1="361.88" x2="888.37" y2="395.33"/>
    <line class="cls-12" x1="895.49" y1="361.88" x2="895.49" y2="395.39"/>
    <line class="cls-14" x1="861.64" y1="360.97" x2="861.64" y2="394.46"/>
    <line class="cls-14" x1="867.9" y1="360.97" x2="867.9" y2="394.39"/>
    <line class="cls-14" x1="875.01" y1="360.95" x2="875.01" y2="394.46"/>
    <path class="cls-2"
          d="M516.82,364.18v-7.39s3.72-4.71,7.45-4.71,6.51,2.79,5.58,4.66-.93,7.44-.93,7.44A15.35,15.35,0,0,1,516.82,364.18Z"
          transform="translate(1.64)"/>
    <path class="cls-2" d="M516.82,365.42V377s6.52,2.09,12.1.23v-13" transform="translate(1.64)"/>
    <path class="cls-2" d="M523.43,363s2.7.3,2.7-.63-1.68-2.49-2.7-1.71S523.43,363,523.43,363Z"
          transform="translate(1.64)"/>
    <line class="cls-15" x1="407.53" y1="358.53" x2="444.97" y2="358.53"/>
    <line class="cls-15" x1="374.65" y1="313.02" x2="374.65" y2="342.26"/>
    <line class="cls-15" x1="382.56" y1="312.4" x2="382.56" y2="344.43"/>
    <line class="cls-15" x1="390.91" y1="312.56" x2="390.91" y2="371.46"/>
    <line class="cls-15" x1="399.29" y1="312.56" x2="399.29" y2="371.46"/>
    <line class="cls-2" x1="454.99" y1="312.09" x2="453.27" y2="375.84"/>
    <line class="cls-2" x1="463.37" y1="313.02" x2="461.64" y2="376.77"/>
    <line class="cls-16" x1="480.12" y1="313.02" x2="478.4" y2="376.77"/>
    <line class="cls-16" x1="471.75" y1="313.02" x2="470.02" y2="376.77"/>
    <line class="cls-16" x1="489.43" y1="313.02" x2="487.7" y2="376.77"/>
    <line class="cls-17" x1="497.81" y1="312.56" x2="496.08" y2="377.7"/>
    <line class="cls-17" x1="514.56" y1="312.56" x2="512.83" y2="377.7"/>
    <line class="cls-17" x1="506.18" y1="312.56" x2="504.45" y2="377.7"/>
    <line class="cls-2" x1="521.7" y1="312.4" x2="521.7" y2="353.64"/>
    <line class="cls-2" x1="530.38" y1="312.4" x2="529.88" y2="353.28"/>
    <line class="cls-2" x1="537.35" y1="312.4" x2="536.22" y2="377.7"/>
    <line class="cls-2" x1="545.89" y1="312.09" x2="544.18" y2="378.11"/>
    <polyline class="cls-2" points="552.01 312.4 552.01 383.25 554 382.92"/>
    <line class="cls-2" x1="960.96" y1="297.29" x2="962.21" y2="385.15"/>
    <line class="cls-2" x1="975.68" y1="301.42" x2="975.24" y2="394.46"/>
    <line class="cls-2" x1="990.45" y1="305.56" x2="990.45" y2="407.87"/>
    <line class="cls-2" x1="1004.09" y1="309.3" x2="1005.96" y2="407.49"/>
    <line class="cls-2" x1="1016.51" y1="313.01" x2="1019.92" y2="407.02"/>
    <path class="cls-2"
          d="M946,414.88q-3.35-10.53-6.36-21.17c4.91,5.55,5.88,13.66,10.36,19.56l-3.44-19.6a3.29,3.29,0,0,1,.27-2.59c1.35,1.32,1.7,3.33,2.06,5.18a82.64,82.64,0,0,0,4.21,14.63,3,3,0,0,0,1.51,1.94c1.26-7.83-.92-15.83-.32-23.74.55,7.4,1.13,14.89,3.38,22a6.86,6.86,0,0,0,.91-2.43l3-12.65a142,142,0,0,1-1.91,16.43l5.72-13c.82,4.36-1.47,8.78-1.09,13.21,1.13-1,1.53-2.57,2-4a25.27,25.27,0,0,1,4.37-8L967.14,415q4.1-5.27,8.52-10.26c.77,3.36-2,6.57-2,10l6.72-7.18c.75,1.66-.51,3.5-.8,5.3a1.58,1.58,0,0,0,0,.78c.35.94,1.73.7,2.68.35a13,13,0,0,1,6.58-.85c1.41.23,2.76.77,4.16,1.05a5.59,5.59,0,0,0,4.16-.49"
          transform="translate(1.64)"/>
    <path class="cls-2"
          d="M944.75,412.93c-1.78-1.88-2.28-4.64-3.82-6.73-.41-.56-1.08-1.11-1.73-.85s-.73,1.14-.71,1.85l.08,2.86c0,.54,0,1.17-.48,1.45a1.19,1.19,0,0,1-.79.1,6.29,6.29,0,0,1-1.59-.66,2.57,2.57,0,0,0-1.66-.32,1.12,1.12,0,0,0-.9,1.26,1.54,1.54,0,0,0,1.14.86,14.76,14.76,0,0,0,5.18.22c-1.48.42-3.07.25-4.56.61a30.28,30.28,0,0,0-2.93,1.09c-2.94,1-6.17.74-9.27.44"
          transform="translate(1.64)"/>
    <path class="cls-2"
          d="M947.83,414.31a33.48,33.48,0,0,1-1.49-6.59l-1.42-9.13c.32,0,.56.29.73.58a25.08,25.08,0,0,1,2.5,5.16c.41,1.35.59,2.77,1,4.11.54,1.66,1.48,3.2,1.73,4.93.29-5.67.6-11.35,1.38-17q1.37,5.67,2.47,11.4c.35,1.82.73,3.74,2,5.1,2-4.4,2.17-9.35,2.35-14.17.29,2.29.2,4.62.33,6.92a14.84,14.84,0,0,0,1.68,6.66,27.13,27.13,0,0,0,3.15-9.25l-.47,7.9a9.64,9.64,0,0,0,.09,2.63,3.53,3.53,0,0,0,1.77-1.76c1.25-2.22,2-4.8,3.77-6.6a59.09,59.09,0,0,0-1.52,9.25,6.7,6.7,0,0,0,2-2.44q1.43-2.43,2.82-4.87a55.44,55.44,0,0,1-1,7.48"
          transform="translate(1.64)"/>
    <path class="cls-2"
          d="M977.47,408.1a30.9,30.9,0,0,0,4.12-7.81c.46.54.94,1.06,1.45,1.55a2.82,2.82,0,0,0,1.11.74,1.67,1.67,0,0,0,1.89-1.21,2.37,2.37,0,0,0-.73-2.25,4.14,4.14,0,0,0-2.23-1,5.93,5.93,0,0,0,2.69-1.92,2,2,0,0,0-.55-2.91,2.22,2.22,0,0,0-2.24.53,4.05,4.05,0,0,0-1.4,2.76,3.16,3.16,0,0,0-1.69-1.44,2.62,2.62,0,0,0-2.58,1.51,2.39,2.39,0,0,0-.41,1.36,2,2,0,0,0,1.59,1.59,5.74,5.74,0,0,0,2.4-.14"
          transform="translate(1.64)"/>
    <path class="cls-2"
          d="M971.64,406.82a43.28,43.28,0,0,0,3.46-8.65,4.59,4.59,0,0,1,.75-1.93c.22-.26.49-.46.72-.7a2.81,2.81,0,0,0,.78-2,1.32,1.32,0,0,0-.14-.65c-.4-.65-1.4-.42-2,0a5.88,5.88,0,0,0-2,2.5,3.57,3.57,0,0,0-2.72-1.69,1.63,1.63,0,0,0-1.62.65c-.39.71.16,1.59.81,2.07a4.73,4.73,0,0,0,3.82.81"
          transform="translate(1.64)"/>
    <path class="cls-2"
          d="M963.59,401.9c.53-2.47,2.15-4.58,2.73-7a22.71,22.71,0,0,1,.71-3.17c.31-.76.83-1.57.56-2.35a1.6,1.6,0,0,0-2.39-.56,2.69,2.69,0,0,0-.88,2.57,2.07,2.07,0,0,0-2.62-.2,1.6,1.6,0,0,0,0,2.46c.83.56,1.94.07,2.82-.42l3.11-1.75a4.1,4.1,0,0,1,1.33-.56,1.39,1.39,0,0,1,1.31.43c.54.7,0,1.71-.7,2.25a3,3,0,0,1-2,.72A1.76,1.76,0,0,1,966,393"
          transform="translate(1.64)"/>
    <path class="cls-2"
          d="M959,400.58l.28-10a2.13,2.13,0,0,0,2.34-1.35,6.17,6.17,0,0,0,.29-2.9,2.41,2.41,0,0,0-.22-1,.83.83,0,0,0-.86-.46,1.07,1.07,0,0,0-.53.41,5.66,5.66,0,0,0-.66,3.71,6.35,6.35,0,0,0-2.21-3.3c-.3-.22-.74-.41-1-.15a.81.81,0,0,0-.13.63,6,6,0,0,0,1.75,3.57,1.37,1.37,0,0,0-1.49-1.16,2.6,2.6,0,0,0-1.75,1.07,1,1,0,0,0-.27.94,1,1,0,0,0,.73.48,6.5,6.5,0,0,0,3.19,0"
          transform="translate(1.64)"/>
    <path class="cls-2"
          d="M749.35,407.26q-1.61-3.75-2.83-7.64a17.35,17.35,0,0,1,2.34,6.77c.72-2.11.18-4.69,1.58-6.43l.29,7.35a19.69,19.69,0,0,1,3-5.28,6.47,6.47,0,0,1-1.31,2.32,3.32,3.32,0,0,0-.77,2.49,27.28,27.28,0,0,1,5.82-2.08l-1.28,2.39a4.22,4.22,0,0,1,1.4-1.64,1.47,1.47,0,0,1,2,.31c.11.18.16.38.28.55.4.59,1.31.48,1.93.13a6.34,6.34,0,0,1,1.85-1c.89-.18,1.75.37,2.66.49,1.25.18,2.51-.47,3.77-.31.76.1,1.46.49,2.22.65,1.93.39,3.9-.78,5.86-.55a19.88,19.88,0,0,1,2.71.77,14.72,14.72,0,0,0,3,.38l5.11.29"
          transform="translate(1.64)"/>
    <path class="cls-2"
          d="M780.12,407.83c-1.9-.75-4-.4-6.06-.51a29.3,29.3,0,0,0-3.37-.2,18.26,18.26,0,0,0-4.33,1.11,26.24,26.24,0,0,1-4.87,1"
          transform="translate(1.64)"/>
    <path class="cls-2"
          d="M749.51,404.89a26.24,26.24,0,0,1-.52-7.29,2.83,2.83,0,0,1,.9-2.22c1.15-.78,3,.28,4-.65a1.56,1.56,0,0,0,0-2.2,2.12,2.12,0,0,0-2.3-.33,3.49,3.49,0,0,0-1.68,1.75,7.58,7.58,0,0,0-.31-2.68,3.26,3.26,0,0,0-.81-1.48,1.58,1.58,0,0,0-1.56-.44,2,2,0,0,0-1,2.27,4.37,4.37,0,0,0,2.12,3.1,5.29,5.29,0,0,0-3.34-1.07,2.68,2.68,0,0,0-1.92.73,1.39,1.39,0,0,0-.07,1.89,2,2,0,0,0,1.35.42,11.89,11.89,0,0,0,3.36-.39"
          transform="translate(1.64)"/>
    <path class="cls-2"
          d="M458.36,408.52a15.77,15.77,0,0,0,3.21-8.77,37.41,37.41,0,0,1-3.36,6.19l-.72-2.9c-.89,1-.64,3-1.88,3.52-1,.48-2.58-.37-3.27.54-.5.65-.12,1.09-.92,1.25-.41.08-1.62-.74-2-.92l-4-1.85c-.48-.22-1.05-.64-.88-1.14a.84.84,0,0,1,.4-.43c1.17-.67,2.62.11,3.69.93s2.33,1.76,3.63,1.4a.75.75,0,0,0,.35-.19.92.92,0,0,0,.13-.7,12.83,12.83,0,0,1,.54-4.69c.78,2.07.48,6.29-1.26,7.9s-5.39,2-7.44,2.76l-6.69,2.37a31.42,31.42,0,0,1-4.74,1.4"
          transform="translate(1.64)"/>
    <path class="cls-2"
          d="M280,432.39c-2.64-1.48-5.84-1.64-8.86-1.36s-6,1-9,1.09c-5.8.2-11.55-1.81-17.34-1.36A38.31,38.31,0,0,0,250,424.9l-5.31,5.16a17,17,0,0,1-.64-4.85q-.19,2.55-.6,5.07l-2.78-3.41.82,4.41c-2.08-.84-2.37-4.53-4.62-4.53l1.58,4.85a10.65,10.65,0,0,1-2.43-3.26c-.48.45-.45,1.21-.69,1.81s-1.23,1-1.49.41a1.37,1.37,0,0,1,0-.67c.09-1.3-1-2.33-1.6-3.48a10.37,10.37,0,0,1-.91-3.94l-.84-8.84c-1.54,5.31,1.21,11,.6,16.46a57.61,57.61,0,0,0-7.24-11.28c-.44-.54-1.15-1.11-1.74-.75.07,1.62,1.23,2.95,2.33,4.13q4.26,4.53,8.74,8.84a42.88,42.88,0,0,0-13.46-7.47,67.92,67.92,0,0,0,10.92,9,37,37,0,0,0-7.24-3.05,12.59,12.59,0,0,0-7.73.19,92.59,92.59,0,0,0,17.24,2.07c0,.73-.77,1.19-1.45,1.45-5.14,1.94-10.88,1.41-16.23,2.67a48.81,48.81,0,0,0-8.16,2.95"
          transform="translate(1.64)"/>
    <path class="cls-2"
          d="M286,310.43h16.58a6.28,6.28,0,0,0,1.63-.21c2.61-.68,9.65-3.19,2-9a19.15,19.15,0,0,0-17.4-3.23c-3.95,1.18-7,3.41-8.27,5.38-1.47,2.3-1,3.06-.63,4.13s2.55,2.6,6.31,2.92"
          transform="translate(1.64)"/>
    <path class="cls-2" d="M288.64,286.67s3.06,1.76,1,3.73c-1.17,1.1-1.74,3,.13,4.24" transform="translate(1.64)"/>
    <path class="cls-2" d="M293.54,286.26s3.06,1.76,1,3.73c-1.17,1.1-1.74,3,.13,4.24" transform="translate(1.64)"/>
    <path class="cls-2" d="M298,285.89s3.06,1.76,1,3.73c-1.17,1.1-1.74,3,.13,4.24" transform="translate(1.64)"/>
    <path class="cls-2" d="M289.33,298.21a3.74,3.74,0,0,0-1.41,4.21" transform="translate(1.64)"/>
    <path class="cls-2" d="M295.48,297.17s-3.65,1.81-2.71,5.25" transform="translate(1.64)"/>
    <path class="cls-2" d="M300.67,298s-3.13,1.35-2.58,4.4" transform="translate(1.64)"/>
    <path class="cls-2" d="M352.84,77.37V85l20.25-8.78v-8c-4.46-4.15-13.71-3.19-13.71-3.19l-6.54,12.28,20.09-8.93"
          transform="translate(1.64)"/>
    <ellipse class="cls-2" cx="367.39" cy="67.8" rx="1.43" ry="0.64"/>
    <ellipse class="cls-2" cx="366.09" cy="75.88" rx="1.59" ry="1.43"/>
    <ellipse class="cls-2" cx="359.58" cy="72.74" rx="1.28" ry="0.48"/>
    <path class="cls-2" d="M435.69,33.88s0,1.31-1.31,0S435.69,30,437,31.27l1.31,1.3" transform="translate(1.64)"/>
    <path class="cls-2"
          d="M463.78,33.23l-6.62-2.32s-7.76-1.6-14.54,0-6.28,7.54-5,8.85L439.84,42c-1.73,3.5.42,7,.42,7h3.92A5.73,5.73,0,0,1,442.87,45a2.56,2.56,0,0,1,2.61-2.62l1.31,1.31c1.31,1.31,7.84,0,7.84,0-1.31,2.61,2.61,5.23,2.61,5.23h2.62c-1.31-1.31-1.31-9.15.74-6.54s6.87,0,6.87,0L469,39.76c-2.61,0-3.92-3.92-3.92-3.92"
          transform="translate(1.64)"/>
    <path class="cls-2" d="M463.36,37.53s-2.44-3.51,2.71-5.45l1.52.32S467,35.28,465.48,35" transform="translate(1.64)"/>
    <path class="cls-2" d="M552.45,88.32" transform="translate(1.64)"/>
    <path class="cls-2"
          d="M564.42,35a2.56,2.56,0,0,1-2.62-2.61c0-1.31,1.31-2.61,3.27.65h1.31c1.3,0,1.3,0,3.91,1.84s0,3.39,0,3.39a11.48,11.48,0,0,0-3.91.65c-1.31.65.17,4.06-.66,6.53-.65,2-3.26,3.27-3.26,3.27s-1,5.88-.31,7.19c1,.65,1.31,3.26,1.31,3.26h-3.62V56.53a1.28,1.28,0,0,1-1.3-1.31c0-1.3-1.15-5.88-1.47-5.88-4.09,2-10.29-.65-10.29-.65"
          transform="translate(1.64)"/>
    <path class="cls-2"
          d="M546.78,49l-2,3v2.61a4.58,4.58,0,0,1,1.3,2.61,5.24,5.24,0,0,0,.29,2l-2.9-.65s0-2.61-1.31-2.61V53.26L540.9,52l1.3-2.62s.71-3.35-.3-4.94a4.75,4.75,0,0,1,2.92-6.81c2.48-.83,11.76,1.3,14.37,0S561.8,35,561.8,35"
          transform="translate(1.64)"/>
    <rect class="cls-2" x="625.42" y="67.29" width="5.69" height="1.81" rx="0.62"/>
    <path class="cls-2"
          d="M623.31,76.87a2.19,2.19,0,0,0-2,2.17v14a2.19,2.19,0,0,0,2.18,2.18h6.26a2.19,2.19,0,0,0,2.18-2.18V79A2.19,2.19,0,0,0,630.36,77"
          transform="translate(1.64)"/>
    <path class="cls-2" d="M626.63,69.1" transform="translate(1.64)"/>
    <line class="cls-2" x1="633.58" y1="93.17" x2="633.58" y2="93.06"/>
    <line class="cls-2" x1="626.23" y1="69.1" x2="624.71" y2="76.86"/>
    <polyline class="cls-2" points="630.41 69.1 631.92 76.84 631.93 76.86"/>
    <line class="cls-2" x1="631.92" y1="76.84" x2="632.04" y2="76.96"/>
    <line class="cls-2" x1="625.47" y1="72.98" x2="630.78" y2="71"/>
    <line class="cls-2" x1="622.96" y1="81.68" x2="633.59" y2="81.68"/>
    <line class="cls-2" x1="622.96" y1="91.93" x2="633.58" y2="91.93"/>
    <line class="cls-2" x1="630.48" y1="65.22" x2="630.48" y2="62.37"/>
    <line class="cls-2" x1="632.55" y1="65.82" x2="634.76" y2="63.82"/>
    <line class="cls-2" x1="633.33" y1="67.61" x2="636.43" y2="67.76"/>
    <path class="cls-2"
          d="M654.59,155.68s3.63,5.23,8.59,2.35a3.63,3.63,0,0,1-2.67,4.69s-5.73-1.81-6.49-6.49-.38-12.27,9.92-14.07a17.64,17.64,0,0,1,8.33.25l.14,0a10.27,10.27,0,0,1,5.66,4.4c.76,1.08,1.91,5.77,1.91,5.77s-6.49,3.61-13.36.36C659.36,150.45,657.84,149.73,654.59,155.68Z"
          transform="translate(1.64)"/>
    <path class="cls-2" d="M672.27,142.41s-6.37,2.91-2.58,11.61" transform="translate(1.64)"/>
    <path class="cls-2" d="M664.15,142.12a19,19,0,0,0-2.09-2L660.62,139s6.62-1.32,8.2,2.77"
          transform="translate(1.64)"/>
    <ellipse class="cls-2" cx="676.08" cy="147.75" rx="0.76" ry="0.72"/>
    <polygon class="cls-2"
             points="275.58 202.46 275.74 205.01 290.19 204.29 290.01 201.54 275.85 202.44 275.58 202.46"/>
    <polygon class="cls-2"
             points="274.09 227.75 280.41 229.41 279.47 214.75 275.74 205.01 273.85 213.27 274.09 227.75"/>
    <polyline class="cls-2" points="274.09 227.75 277.39 225.47 280.16 229.35"/>
    <line class="cls-2" x1="276.65" y1="213.78" x2="277.39" y2="225.47"/>
    <polyline class="cls-2" points="279.45 214.52 293.31 213.63 290.39 204.27"/>
    <polyline class="cls-2" points="280.41 229.41 294.8 227.81 293.31 213.63"/>
    <polyline class="cls-2"
              points="280.93 202.12 281.1 204.67 283.94 209.17 287.38 208.95 285.01 204.27 285.09 201.85"/>
    <line class="cls-2" x1="280.25" y1="226.99" x2="294.51" y2="225.1"/>
    <path class="cls-2" d="M284.91,218.44a2.89,2.89,0,0,0-3.18-.13,2.45,2.45,0,1,0,2.33,4.22,3.11,3.11,0,0,0,1.49-1.75"
          transform="translate(1.64)"/>
    <ellipse class="cls-2" cx="287.66" cy="219.43" rx="2.41" ry="2.86"
             transform="translate(-65.46 290.45) rotate(-48.66)"/>
    <line class="cls-2" x1="287.32" y1="217.37" x2="291.45" y2="221.32"/>
    <line class="cls-2" x1="282.03" y1="221.8" x2="286.67" y2="218.56"/>
    <path class="cls-2" d="M304.82,114.56s3,1.25.9,2.75c-1.19.85-1.8,2.29,0,3.15" transform="translate(1.64)"/>
    <path class="cls-2" d="M309.27,114.19s3,1.25.9,2.75c-1.19.85-1.8,2.29,0,3.15" transform="translate(1.64)"/>
    <path class="cls-2"
          d="M302.55,124.63h12.66a.65.65,0,0,1,.65.65v2.45a0,0,0,0,1,0,0h-14a0,0,0,0,1,0,0v-2.45A.65.65,0,0,1,302.55,124.63Z"/>
    <path class="cls-2"
          d="M303.59,123.08h10.28a.53.53,0,0,1,.53.53v1a0,0,0,0,1,0,0H303.06a0,0,0,0,1,0,0v-1A.53.53,0,0,1,303.59,123.08Z"/>
    <path class="cls-2" d="M300.75,127.73l.28,2.52,1.36,12a.5.5,0,0,0,.49.44h8.61a.5.5,0,0,0,.49-.44l1.7-14.54"
          transform="translate(1.64)"/>
    <line class="cls-2" x1="315.03" y1="130.26" x2="302.67" y2="130.26"/>
    <line class="cls-2" x1="303.42" y1="136.91" x2="314.25" y2="136.91"/>
    <path class="cls-18" d="M394.18,150.93h1.24l3.43,10.23,3.43-10.23h1.24l-4.12,11.9h-1.1Z"
          transform="translate(1.64)"/>
    <path class="cls-18"
          d="M405.32,150.93h1.18v11.9h-1.18Zm.81,0H413V152h-6.83Zm0,5.44h5.93v1.1h-5.93Zm0,5.36H413v1.1h-6.83Z"
          transform="translate(1.64)"/>
    <path class="cls-18" d="M415.33,150.93h1.18v11.9h-1.18Zm.84,10.8H423v1.1h-6.8Z" transform="translate(1.64)"/>
    <path class="cls-18"
          d="M424.94,150.93h1.17v11.9h-1.17Zm.57,8.27,6.52-8.27h1.52L426,160.11Zm3.35-2.72.68-1.22,4.51,7.57h-1.41Z"
          transform="translate(1.64)"/>
    <path class="cls-18"
          d="M436.86,162.44a3.43,3.43,0,0,1-1.42-1.5,5.25,5.25,0,0,1-.49-2.37V155.2a5.26,5.26,0,0,1,.49-2.38,3.36,3.36,0,0,1,1.42-1.49,5.19,5.19,0,0,1,4.53,0,3.43,3.43,0,0,1,1.43,1.49,5.4,5.4,0,0,1,.49,2.38v3.37a5.38,5.38,0,0,1-.49,2.37,3.51,3.51,0,0,1-1.43,1.5,5.28,5.28,0,0,1-4.53,0Zm3.89-1a2.5,2.5,0,0,0,1-1.1,4,4,0,0,0,.35-1.75v-3.48a4,4,0,0,0-.35-1.75,2.5,2.5,0,0,0-1-1.1,3.66,3.66,0,0,0-3.25,0,2.42,2.42,0,0,0-1,1.1,3.9,3.9,0,0,0-.36,1.75v3.48a3.87,3.87,0,0,0,.36,1.75,2.42,2.42,0,0,0,1,1.1,3.66,3.66,0,0,0,3.25,0Z"
          transform="translate(1.64)"/>
    <path class="cls-18"
          d="M454.72,150.93H456v11.9h-1.18V152.61l.13.52-3.59,8.05h-.83l-3.58-7.88.12-.69v10.22h-1.18v-11.9h1.24l3.82,8.59Z"
          transform="translate(1.64)"/>
    <path class="cls-18"
          d="M467.77,150.93H469v11.9h-1.18V152.61l.12.52-3.58,8.05h-.84L460,153.3l.12-.69v10.22H458.9v-11.9h1.23l3.82,8.59Z"
          transform="translate(1.64)"/>
    <path class="cls-18"
          d="M472,150.93h1.18v11.9H472Zm.81,0h6.83V152h-6.83Zm0,5.44h5.93v1.1h-5.93Zm0,5.36h6.83v1.1h-6.83Z"
          transform="translate(1.64)"/>
    <path class="cls-18" d="M482,150.93h1.19l6.9,10.72-.48-.33V150.93h1.18v11.89h-1.2L482.5,152l.64.47v10.33H482Z"
          transform="translate(1.64)"/>
    <path class="cls-18" d="M493.82,161.49h1.34v1.34h-1.34Zm.08-10.56h1.17v9.17H493.9Z" transform="translate(1.64)"/>
    <path class="cls-18" d="M394.91,180.47h.79v7.92h-.79Zm.55,0h4.44v.73h-4.44Zm0,3.69h3.84v.73h-3.84Z"
          transform="translate(1.64)"/>
    <path class="cls-18"
          d="M401.27,180.46h.78v7.93h-.78Zm.48,3.85h2.71a1.67,1.67,0,0,0,.78-.19,1.35,1.35,0,0,0,.51-.55,1.68,1.68,0,0,0,.19-.82,1.8,1.8,0,0,0-.18-.82,1.38,1.38,0,0,0-.52-.55,1.61,1.61,0,0,0-.78-.19h-2.71v-.73h2.66a2.46,2.46,0,0,1,1.21.28,2,2,0,0,1,.81.81,2.48,2.48,0,0,1,.29,1.2,2.45,2.45,0,0,1-.29,1.2,2,2,0,0,1-.81.81,2.49,2.49,0,0,1-1.21.28h-2.66Zm2.54.49.73-.26,2,3.85h-.94Z"
          transform="translate(1.64)"/>
    <path class="cls-18" d="M408.55,180.47h.78v7.92h-.78Zm.54,0h4.55v.73h-4.55Zm0,3.62h4v.73h-4Zm0,3.57h4.55v.73h-4.55Z"
          transform="translate(1.64)"/>
    <path class="cls-18"
          d="M415.22,180.47H416v7.92h-.79Zm.76,7.19h1.79a2.36,2.36,0,0,0,1.65-.51,2.06,2.06,0,0,0,.55-1.55v-2.34a2.06,2.06,0,0,0-.55-1.55,2.36,2.36,0,0,0-1.65-.51H416v-.73h1.76a4,4,0,0,1,1.68.31,2.1,2.1,0,0,1,1,.95,3.36,3.36,0,0,1,.33,1.58v2.24a3.36,3.36,0,0,1-.33,1.58,2.17,2.17,0,0,1-1,1,4,4,0,0,1-1.68.31H416Z"
          transform="translate(1.64)"/>
    <path class="cls-18" d="M424.38,180.47h.95l2.93,7.92h-.88l-2.52-7.1-2.53,7.1h-.87Zm-1.57,5.27H427v.73h-4.17Z"
          transform="translate(1.64)"/>
    <path class="cls-18"
          d="M434.44,184.34v1.17a3.83,3.83,0,0,1-.31,1.65,2.06,2.06,0,0,1-.92,1,3.26,3.26,0,0,1-1.55.33,3.47,3.47,0,0,1-1.56-.32,2,2,0,0,1-.93-.92,3.44,3.44,0,0,1-.31-1.56v-2.34a3.91,3.91,0,0,1,.3-1.64,2.13,2.13,0,0,1,.93-1,3.22,3.22,0,0,1,1.54-.33,3,3,0,0,1,1.33.27,2.21,2.21,0,0,1,.91.78,3.55,3.55,0,0,1,.5,1.31h-.85a2.72,2.72,0,0,0-.39-.91,1.63,1.63,0,0,0-.63-.54,2,2,0,0,0-.87-.18,2.33,2.33,0,0,0-1.11.25,1.64,1.64,0,0,0-.66.74,3,3,0,0,0-.22,1.24v2.34a2.71,2.71,0,0,0,.22,1.15,1.51,1.51,0,0,0,.68.69,2.48,2.48,0,0,0,1.12.22,2.2,2.2,0,0,0,1.09-.23,1.52,1.52,0,0,0,.65-.72,3.25,3.25,0,0,0,.21-1.26v-.46h-1.92v-.73Z"
          transform="translate(1.64)"/>
    <path class="cls-18" d="M441,188.39h-.79v-7.26l-1.45.91v-.82l1.13-.75H441Z" transform="translate(1.64)"/>
    <path class="cls-18"
          d="M442.67,187.76l3-3.91a3.37,3.37,0,0,0,.46-.75,1.76,1.76,0,0,0,.16-.65h0a1.27,1.27,0,0,0-.37-1,1.43,1.43,0,0,0-1-.35,1.41,1.41,0,0,0-1,.38,1.71,1.71,0,0,0-.47,1h-.82a3.11,3.11,0,0,1,.4-1.17,2,2,0,0,1,.78-.73,2.33,2.33,0,0,1,1.11-.26,2.64,2.64,0,0,1,1.21.25,1.62,1.62,0,0,1,.76.7,2.19,2.19,0,0,1,.27,1.12h0a2.23,2.23,0,0,1-.22.85,4.79,4.79,0,0,1-.6,1l-2.63,3.37h3.49v.73h-4.47Z"
          transform="translate(1.64)"/>
    <path class="cls-18" d="M452.28,185.19v.73h-3.67v-.73Z" transform="translate(1.64)"/>
    <path class="cls-18" d="M455.66,188.39h-.78v-7.26l-1.46.91v-.82l1.13-.75h1.11Z" transform="translate(1.64)"/>
    <path class="cls-18"
          d="M460.6,184.46v.19a.74.74,0,0,1-.45.37,2.26,2.26,0,0,1-.77.12,2.06,2.06,0,0,1-1.09-.29,1.89,1.89,0,0,1-.72-.81,2.8,2.8,0,0,1-.26-1.22h0a3.06,3.06,0,0,1,.26-1.31,1.76,1.76,0,0,1,.76-.83,2.61,2.61,0,0,1,2.39,0,1.91,1.91,0,0,1,.75.84,3,3,0,0,1,.26,1.33h0a3.7,3.7,0,0,1-.11.91,5.1,5.1,0,0,1-.31,1l-.06.14a1,1,0,0,0-.07.15l-1.69,3.39h-.88Zm0-.49a1.79,1.79,0,0,0,.37-1.2h0a1.77,1.77,0,0,0-.38-1.21,1.47,1.47,0,0,0-2.1,0,1.77,1.77,0,0,0-.38,1.21h0a1.73,1.73,0,0,0,.38,1.19,1.51,1.51,0,0,0,2.11,0Z"
          transform="translate(1.64)"/>
    <path class="cls-18" d="M394.91,193.87h.79v7.93h-.79Zm.56,7.2H400v.73h-4.54Z" transform="translate(1.64)"/>
    <path class="cls-18" d="M403.59,193.87h.94l2.93,7.93h-.87l-2.53-7.11-2.52,7.11h-.88ZM402,199.14h4.17v.73H402Z"
          transform="translate(1.64)"/>
    <path class="cls-18"
          d="M409.34,201.56a2.06,2.06,0,0,1-.92-1,3.61,3.61,0,0,1-.31-1.61v-5.11h.79V199a2.18,2.18,0,0,0,.49,1.56,2,2,0,0,0,1.5.52,2,2,0,0,0,1.51-.52,2.18,2.18,0,0,0,.5-1.56v-5.15h.78V199a3.76,3.76,0,0,1-.3,1.61,2.13,2.13,0,0,1-.93,1,3.47,3.47,0,0,1-1.56.32A3.39,3.39,0,0,1,409.34,201.56Z"
          transform="translate(1.64)"/>
    <path class="cls-18"
          d="M415.43,193.86h.78v7.94h-.78Zm.48,3.85h2.71a1.55,1.55,0,0,0,.78-.19,1.29,1.29,0,0,0,.51-.55,1.68,1.68,0,0,0,.19-.82,1.8,1.8,0,0,0-.18-.82,1.23,1.23,0,0,0-.52-.54,1.51,1.51,0,0,0-.78-.2h-2.71v-.73h2.67a2.45,2.45,0,0,1,1.2.29,1.89,1.89,0,0,1,.81.8,2.48,2.48,0,0,1,.29,1.2,2.42,2.42,0,0,1-.29,1.2,2,2,0,0,1-.81.81,2.47,2.47,0,0,1-1.2.28h-2.67Zm2.55.49.72-.25,2,3.85h-.94Z"
          transform="translate(1.64)"/>
    <path class="cls-18"
          d="M422.71,193.87h.78v7.93h-.78Zm.75,7.2h1.8a2.36,2.36,0,0,0,1.65-.52,2,2,0,0,0,.54-1.55v-2.34a2.06,2.06,0,0,0-.54-1.55,2.36,2.36,0,0,0-1.65-.51h-1.8v-.73h1.76a3.91,3.91,0,0,1,1.68.31,2.08,2.08,0,0,1,1,.95,3.39,3.39,0,0,1,.33,1.58V199a3.24,3.24,0,0,1-.34,1.58,2.1,2.1,0,0,1-1,.95,4,4,0,0,1-1.68.32h-1.76Z"
          transform="translate(1.64)"/>
    <path class="cls-18" d="M431.87,193.87h.95l2.92,7.93h-.87l-2.52-7.11-2.53,7.11H429Zm-1.57,5.27h4.17v.73H430.3Z"
          transform="translate(1.64)"/>
    <path class="cls-18"
          d="M441.93,197.74v1.17a4,4,0,0,1-.31,1.65,2.11,2.11,0,0,1-.92,1,3.29,3.29,0,0,1-1.55.33,3.61,3.61,0,0,1-1.56-.31,2.06,2.06,0,0,1-.94-.93,3.56,3.56,0,0,1-.31-1.55v-2.34a4,4,0,0,1,.31-1.65,2.08,2.08,0,0,1,.93-1,3.23,3.23,0,0,1,1.54-.32,3,3,0,0,1,1.32.26,2.09,2.09,0,0,1,.91.78,3.39,3.39,0,0,1,.51,1.31H441a2.87,2.87,0,0,0-.39-.9,1.63,1.63,0,0,0-.63-.54,2,2,0,0,0-.87-.18,2.34,2.34,0,0,0-1.11.24,1.62,1.62,0,0,0-.66.75,3,3,0,0,0-.22,1.24v2.34a2.55,2.55,0,0,0,.22,1.14,1.47,1.47,0,0,0,.68.69,2.45,2.45,0,0,0,1.12.23,2.23,2.23,0,0,0,1.09-.24,1.42,1.42,0,0,0,.64-.72,3.06,3.06,0,0,0,.22-1.26v-.46h-1.92v-.73Z"
          transform="translate(1.64)"/>
    <path class="cls-18" d="M448.48,201.8h-.79v-7.27l-1.45.91v-.82l1.12-.75h1.12Z" transform="translate(1.64)"/>
    <path class="cls-18"
          d="M450.16,201.16l3-3.91a3.31,3.31,0,0,0,.45-.75,1.58,1.58,0,0,0,.16-.65h0a1.3,1.3,0,0,0-.36-1,1.44,1.44,0,0,0-1-.34,1.38,1.38,0,0,0-1,.37,1.71,1.71,0,0,0-.47,1.05h-.82a2.85,2.85,0,0,1,.4-1.16,2,2,0,0,1,.78-.74,2.33,2.33,0,0,1,1.11-.25,2.81,2.81,0,0,1,1.21.24,1.67,1.67,0,0,1,.76.7,2.21,2.21,0,0,1,.26,1.12h0a2.19,2.19,0,0,1-.21.85,5.5,5.5,0,0,1-.6,1l-2.63,3.38h3.49v.73h-4.47Z"
          transform="translate(1.64)"/>
    <path class="cls-18" d="M459.76,198.59v.73H456.1v-.73Z" transform="translate(1.64)"/>
    <path class="cls-18" d="M463.15,201.8h-.78v-7.27l-1.46.91v-.82l1.13-.75h1.11Z" transform="translate(1.64)"/>
    <path class="cls-18" d="M469.05,194.53,467,201.8h-.86l2.09-7.2h-2.71v1.46h-.79v-2.19h4.32Z"
          transform="translate(1.64)"/>
    <path class="cls-18"
          d="M396.21,215.17a3.68,3.68,0,0,1-.95-.33,3.75,3.75,0,0,1-.84-.54l.48-.62a3.47,3.47,0,0,0,1.09.65,3.71,3.71,0,0,0,1.31.22,2.67,2.67,0,0,0,1.58-.41,1.3,1.3,0,0,0,.56-1.13h0a1,1,0,0,0-.25-.72,1.5,1.5,0,0,0-.62-.41,7.84,7.84,0,0,0-1-.25h-.08l-.16,0a8.26,8.26,0,0,1-1.33-.33,1.94,1.94,0,0,1-.86-.58,1.75,1.75,0,0,1-.35-1.15h0a2.32,2.32,0,0,1,.33-1.26,2.1,2.1,0,0,1,1-.79,3.86,3.86,0,0,1,1.52-.27,4,4,0,0,1,.84.09,4.28,4.28,0,0,1,.81.27,5,5,0,0,1,.79.47l-.46.61a4.34,4.34,0,0,0-1-.54,3,3,0,0,0-1-.17,2.39,2.39,0,0,0-1.5.41,1.35,1.35,0,0,0-.54,1.15h0a.93.93,0,0,0,.27.71,1.66,1.66,0,0,0,.66.38,9.36,9.36,0,0,0,1.09.26l0,0h.18a8.4,8.4,0,0,1,1.24.35,2,2,0,0,1,.83.62,1.74,1.74,0,0,1,.33,1.12h0a2.15,2.15,0,0,1-.34,1.24,2.1,2.1,0,0,1-1,.79,4.09,4.09,0,0,1-1.57.27A5.44,5.44,0,0,1,396.21,215.17Z"
          transform="translate(1.64)"/>
    <path class="cls-18"
          d="M402.7,215a2.13,2.13,0,0,1-.93-1,3.75,3.75,0,0,1-.31-1.61v-5.11h.79v5.15a2.12,2.12,0,0,0,.5,1.56,2,2,0,0,0,1.49.52,2,2,0,0,0,1.51-.52,2.16,2.16,0,0,0,.5-1.56v-5.15H407v5.11a3.75,3.75,0,0,1-.31,1.61,2.13,2.13,0,0,1-.93,1,3.44,3.44,0,0,1-1.56.32A3.35,3.35,0,0,1,402.7,215Z"
          transform="translate(1.64)"/>
    <path class="cls-18" d="M408.78,207.27h.79l4.61,7.14-.33-.22v-6.92h.79v7.92h-.8l-4.7-7.2.43.31v6.89h-.79Z"
          transform="translate(1.64)"/>
    <path class="cls-18"
          d="M416.6,207.27h.79v7.93h-.79Zm.76,7.2h1.79a2.36,2.36,0,0,0,1.65-.52,2,2,0,0,0,.55-1.55v-2.33a2.07,2.07,0,0,0-.55-1.56,2.36,2.36,0,0,0-1.65-.51h-1.79v-.73h1.76a4,4,0,0,1,1.68.31,2.14,2.14,0,0,1,1,.95,3.39,3.39,0,0,1,.33,1.58v2.25a3.35,3.35,0,0,1-.33,1.57,2.17,2.17,0,0,1-1,.95,4,4,0,0,1-1.68.32h-1.75Z"
          transform="translate(1.64)"/>
    <path class="cls-18" d="M425.76,207.27h.95l2.93,7.93h-.88l-2.52-7.11-2.53,7.11h-.87Zm-1.57,5.27h4.17v.73h-4.17Z"
          transform="translate(1.64)"/>
    <path class="cls-18"
          d="M435.82,211.15v1.16a3.8,3.8,0,0,1-.31,1.65,2.06,2.06,0,0,1-.92,1,3.26,3.26,0,0,1-1.55.33,3.47,3.47,0,0,1-1.56-.31,2,2,0,0,1-.93-.93,3.4,3.4,0,0,1-.31-1.55v-2.34a4,4,0,0,1,.3-1.65,2.13,2.13,0,0,1,.93-1,3.35,3.35,0,0,1,1.54-.32,3.07,3.07,0,0,1,1.33.26,2.21,2.21,0,0,1,.91.78,3.62,3.62,0,0,1,.5,1.31h-.85a2.66,2.66,0,0,0-.39-.9,1.63,1.63,0,0,0-.63-.54,2,2,0,0,0-.87-.18,2.34,2.34,0,0,0-1.11.24,1.62,1.62,0,0,0-.66.75,3,3,0,0,0-.22,1.24v2.34a2.55,2.55,0,0,0,.22,1.14,1.47,1.47,0,0,0,.68.69,2.48,2.48,0,0,0,1.12.23,2.2,2.2,0,0,0,1.09-.24,1.38,1.38,0,0,0,.64-.72,3.06,3.06,0,0,0,.22-1.26v-.45h-1.92v-.73Z"
          transform="translate(1.64)"/>
    <path class="cls-18" d="M442.37,215.2h-.79v-7.27l-1.45.91V208l1.12-.75h1.12Z" transform="translate(1.64)"/>
    <path class="cls-18"
          d="M445.05,215a1.94,1.94,0,0,1-.82-.68,2.33,2.33,0,0,1-.39-1.08h.79a1.65,1.65,0,0,0,.27.68,1.31,1.31,0,0,0,.55.43,1.86,1.86,0,0,0,.77.15,1.53,1.53,0,0,0,1.1-.38,1.42,1.42,0,0,0,.39-1.07v-.24a1.38,1.38,0,0,0-.38-1,1.43,1.43,0,0,0-1.06-.37h-.56v-.73h.56a1.38,1.38,0,0,0,1-.32,1.23,1.23,0,0,0,.34-.91v-.24a1.28,1.28,0,0,0-.36-1,1.39,1.39,0,0,0-1-.34,1.59,1.59,0,0,0-.66.14,1.39,1.39,0,0,0-.5.41,1.76,1.76,0,0,0-.29.65H444a2.6,2.6,0,0,1,.41-1,2,2,0,0,1,.77-.66,2.29,2.29,0,0,1,1.06-.23,2.2,2.2,0,0,1,1.59.54,2,2,0,0,1,.56,1.52v.24a1.83,1.83,0,0,1-.26,1,1.6,1.6,0,0,1-.75.6,1.36,1.36,0,0,1,.84.6,2.17,2.17,0,0,1,.3,1.19v.24a2.46,2.46,0,0,1-.27,1.19,1.72,1.72,0,0,1-.77.74,2.72,2.72,0,0,1-1.23.26A2.66,2.66,0,0,1,445.05,215Z"
          transform="translate(1.64)"/>
    <path class="cls-18" d="M453.79,212v.73h-3.66V212Z" transform="translate(1.64)"/>
    <path class="cls-18" d="M457.18,215.2h-.78v-7.27l-1.46.91V208l1.13-.75h1.11Z" transform="translate(1.64)"/>
    <path class="cls-18" d="M463.07,207.93l-2,7.27h-.86l2.09-7.2h-2.71v1.47h-.79v-2.2h4.31Z"
          transform="translate(1.64)"/>
    <path class="cls-19"
          d="M683,282.77h60.29a.18.18,0,0,1,.18.18v10.11a5.4,5.4,0,0,1-5.4,5.4H677.5a.18.18,0,0,1-.18-.18v-9.8A5.71,5.71,0,0,1,683,282.77Z"/>
    <path class="cls-18" d="M678.29,288.52h.76l1,3.19,1-3.19h.76l-1.45,4.39h-.61Z" transform="translate(1.64)"/>
    <path class="cls-18" d="M682.29,288.52H683v.72h-.72Zm0,1.26H683v3.13h-.72Z" transform="translate(1.64)"/>
    <path class="cls-18"
          d="M683.87,289.78h.72v3.13h-.72Zm1.86,1.23a.59.59,0,0,0-.15-.43.56.56,0,0,0-.43-.16.53.53,0,0,0-.41.15.52.52,0,0,0-.15.4l-.06-.65a1.06,1.06,0,0,1,.36-.44.85.85,0,0,1,.51-.15,1,1,0,0,1,.78.33,1.49,1.49,0,0,1,.27.95v1.9h-.72Z"
          transform="translate(1.64)"/>
    <path class="cls-18"
          d="M686.91,293.5h.27a.2.2,0,0,0,.15-.06.24.24,0,0,0,0-.18v-3.48h.73v3.58a.88.88,0,0,1-.2.61.74.74,0,0,1-.57.22h-.43Zm.47-5h.73v.72h-.73Z"
          transform="translate(1.64)"/>
    <path class="cls-18"
          d="M689.55,292.8a1.11,1.11,0,0,1-.48-.48,1.65,1.65,0,0,1-.17-.77v-.35a1.78,1.78,0,0,1,.16-.8,1.17,1.17,0,0,1,.46-.5,1.54,1.54,0,0,1,.73-.17,1.19,1.19,0,0,1,.69.2,1.3,1.3,0,0,1,.44.58,2.53,2.53,0,0,1,.15.92v.21h-2.14v-.53h1.47v0a1,1,0,0,0-.18-.52.53.53,0,0,0-.42-.18.61.61,0,0,0-.5.21.84.84,0,0,0-.18.58v.4a.75.75,0,0,0,.19.55.78.78,0,0,0,.55.19,1.09,1.09,0,0,0,.35-.07,1.08,1.08,0,0,0,.31-.19l.48.44a1.73,1.73,0,0,1-.54.35,1.73,1.73,0,0,1-1.36,0Z"
          transform="translate(1.64)"/>
    <path class="cls-18"
          d="M692.93,292.91a2.36,2.36,0,0,1-.47-.16,1.6,1.6,0,0,1-.4-.25l.43-.54a1.89,1.89,0,0,0,.49.25,1.46,1.46,0,0,0,.49.09,1.09,1.09,0,0,0,.5-.09.28.28,0,0,0,.17-.26.24.24,0,0,0-.08-.19.4.4,0,0,0-.22-.09l-.36-.05h-.21a2.82,2.82,0,0,1-.54-.11.68.68,0,0,1-.36-.25.88.88,0,0,1-.14-.53,1,1,0,0,1,.14-.54,1,1,0,0,1,.42-.34,2,2,0,0,1,.69-.11,1.83,1.83,0,0,1,.47,0,2.23,2.23,0,0,1,.44.13,3.11,3.11,0,0,1,.4.22l-.44.53a1.58,1.58,0,0,0-.44-.2,1.39,1.39,0,0,0-.44-.07,1,1,0,0,0-.43.08.27.27,0,0,0-.15.24.19.19,0,0,0,.08.16.44.44,0,0,0,.21.07l.35.05h.14a2.66,2.66,0,0,1,.58.1.77.77,0,0,1,.39.26.89.89,0,0,1,.16.58,1,1,0,0,1-.15.56.88.88,0,0,1-.45.34,2,2,0,0,1-.73.12A3.1,3.1,0,0,1,692.93,292.91Z"
          transform="translate(1.64)"/>
    <path class="cls-18" d="M697.25,289.78H698l-1.18,3.13h-.53l-1.18-3.13h.74l.7,2.1Z" transform="translate(1.64)"/>
    <path class="cls-18" d="M698.51,288.52h.72v.72h-.72Zm0,1.26h.72v3.13h-.72Z" transform="translate(1.64)"/>
    <path class="cls-18"
          d="M700.09,289.78h.72v3.13h-.72ZM702,291a.59.59,0,0,0-.15-.43.56.56,0,0,0-.43-.16.53.53,0,0,0-.41.15.52.52,0,0,0-.15.4l-.06-.65a1.06,1.06,0,0,1,.36-.44.84.84,0,0,1,.5-.15,1,1,0,0,1,.78.33,1.44,1.44,0,0,1,.28.95v1.9H702Z"
          transform="translate(1.64)"/>
    <path class="cls-18"
          d="M704,292.81a1,1,0,0,1-.37-.45,1.88,1.88,0,0,1-.12-.71v-.6a1.94,1.94,0,0,1,.12-.72.91.91,0,0,1,.36-.45,1.06,1.06,0,0,1,.57-.16.86.86,0,0,1,.49.15,1,1,0,0,1,.35.42l-.06.67a.59.59,0,0,0-.07-.31.37.37,0,0,0-.18-.19.62.62,0,0,0-.71.1.74.74,0,0,0-.15.49v.6a.69.69,0,0,0,.15.48.62.62,0,0,0,.71.1.41.41,0,0,0,.18-.19.62.62,0,0,0,.07-.31l0,.69a.82.82,0,0,1-.8.55A1.07,1.07,0,0,1,704,292.81Zm0,1.25a1.1,1.1,0,0,1-.45-.37l.49-.45a.71.71,0,0,0,.27.22.8.8,0,0,0,.33.08.69.69,0,0,0,.49-.17.61.61,0,0,0,.18-.47v-3.12H706v3a1.53,1.53,0,0,1-.16.74,1.12,1.12,0,0,1-.47.47,1.6,1.6,0,0,1-.75.16A1.51,1.51,0,0,1,704,294.06Z"
          transform="translate(1.64)"/>
    <path class="cls-18"
          d="M707.45,292.8a1.14,1.14,0,0,1-.49-.48,1.65,1.65,0,0,1-.16-.77v-.35a1.78,1.78,0,0,1,.16-.8,1.12,1.12,0,0,1,.46-.5,1.49,1.49,0,0,1,.73-.17,1.19,1.19,0,0,1,.69.2,1.29,1.29,0,0,1,.43.58,2.53,2.53,0,0,1,.15.92v.21h-2.13v-.53h1.46v0a.9.9,0,0,0-.19-.52.51.51,0,0,0-.41-.18.64.64,0,0,0-.51.21.89.89,0,0,0-.17.58v.4a.75.75,0,0,0,.19.55.77.77,0,0,0,.54.19,1.15,1.15,0,0,0,.36-.07,1.23,1.23,0,0,0,.31-.19l.47.44a1.73,1.73,0,0,1-.54.35,1.53,1.53,0,0,1-.6.12A1.57,1.57,0,0,1,707.45,292.8Z"
          transform="translate(1.64)"/>
    <path class="cls-18"
          d="M710.21,289.78h.72v3.13h-.72Zm1.86,1.23a.59.59,0,0,0-.15-.43.56.56,0,0,0-.43-.16.53.53,0,0,0-.41.15.52.52,0,0,0-.15.4l-.06-.65a1.06,1.06,0,0,1,.36-.44.85.85,0,0,1,.51-.15,1,1,0,0,1,.78.33,1.49,1.49,0,0,1,.27.95v1.9h-.72Z"
          transform="translate(1.64)"/>
    <path class="cls-18" d="M718.72,288.52h.73v4.39h-.73Zm.39,1.88h2.5v.69h-2.5Zm2.07-1.88h.72v4.39h-.72Z"
          transform="translate(1.64)"/>
    <path class="cls-18"
          d="M723,292.72a.92.92,0,0,1-.27-.73.88.88,0,0,1,.27-.7,1.25,1.25,0,0,1,.82-.23h.84l0,.56h-.88a.47.47,0,0,0-.32.09.32.32,0,0,0-.11.28.33.33,0,0,0,.14.29.76.76,0,0,0,.42.1,1.29,1.29,0,0,0,.51-.08.25.25,0,0,0,.17-.23l.06.44a.49.49,0,0,1-.18.25.75.75,0,0,1-.31.15,1.6,1.6,0,0,1-.39,0A1.17,1.17,0,0,1,723,292.72Zm1.63-1.8a.49.49,0,0,0-.16-.4.6.6,0,0,0-.44-.15,1,1,0,0,0-.35.06,1.07,1.07,0,0,0-.32.16l-.48-.41a1.21,1.21,0,0,1,.48-.33,1.81,1.81,0,0,1,.67-.12,1.55,1.55,0,0,1,.68.14,1,1,0,0,1,.44.4,1.22,1.22,0,0,1,.15.63v2h-.67Z"
          transform="translate(1.64)"/>
    <path class="cls-18"
          d="M726.16,289.78h.73v3.13h-.73ZM728,291a.6.6,0,0,0-.16-.43.54.54,0,0,0-.43-.16.5.5,0,0,0-.55.55l-.07-.65a1.24,1.24,0,0,1,.36-.44.9.9,0,0,1,.51-.15,1,1,0,0,1,.78.33,1.49,1.49,0,0,1,.28.95v1.9H728Z"
          transform="translate(1.64)"/>
    <path class="cls-18"
          d="M730,292.81a.93.93,0,0,1-.37-.45,1.87,1.87,0,0,1-.13-.71v-.6a1.93,1.93,0,0,1,.13-.72.91.91,0,0,1,.36-.45,1.06,1.06,0,0,1,.57-.16.86.86,0,0,1,.49.15,1.13,1.13,0,0,1,.35.42l-.07.67a.71.71,0,0,0-.06-.31.37.37,0,0,0-.18-.19.56.56,0,0,0-.3-.07.51.51,0,0,0-.41.17.74.74,0,0,0-.15.49v.6a.69.69,0,0,0,.15.48.51.51,0,0,0,.41.17.56.56,0,0,0,.3-.07.41.41,0,0,0,.18-.19.75.75,0,0,0,.06-.31l0,.69a1,1,0,0,1-.3.4.84.84,0,0,1-.5.15A1.07,1.07,0,0,1,730,292.81Zm1.33-4.29h.73v4.39h-.73Z"
          transform="translate(1.64)"/>
    <path class="cls-18"
          d="M733.52,292.8a1.11,1.11,0,0,1-.48-.48,1.65,1.65,0,0,1-.17-.77v-.35a1.93,1.93,0,0,1,.16-.8,1.14,1.14,0,0,1,.47-.5,1.49,1.49,0,0,1,.73-.17,1.19,1.19,0,0,1,.68.2,1.24,1.24,0,0,1,.44.58,2.53,2.53,0,0,1,.15.92v.21h-2.13v-.53h1.46v0a1,1,0,0,0-.19-.52.51.51,0,0,0-.41-.18.64.64,0,0,0-.51.21.84.84,0,0,0-.18.58v.4a.76.76,0,0,0,.2.55.77.77,0,0,0,.54.19,1,1,0,0,0,.35-.07,1.29,1.29,0,0,0,.32-.19l.47.44a1.73,1.73,0,0,1-.54.35,1.73,1.73,0,0,1-1.36,0Z"
          transform="translate(1.64)"/>
    <path class="cls-18"
          d="M737,292a.24.24,0,0,0,.06.18.21.21,0,0,0,.16.06h.22v.69h-.4a.73.73,0,0,1-.56-.21.86.86,0,0,1-.2-.62v-3.57H737Z"
          transform="translate(1.64)"/>
    <path class="cls-20"
          d="M719.15,282.77c-.18.63-.55,1.78-1.29,3.67-1.24,3.19-3,5.09-2.47,7.14s2,3,4.82,3.84a45.51,45.51,0,0,0,4.73,1.05l-.74-.13"
          transform="translate(1.64)"/>
</svg>