<?xml version="1.0" encoding="UTF-8" standalone="no"?>
<svg
   xmlns:svg="http://www.w3.org/2000/svg"
   xmlns="http://www.w3.org/2000/svg"
   id="Layer_1"
   viewBox="0 0 1283 471.46"
   version="1.1">
  <defs
     id="defs3930">
    <style
       id="style3928">.cls-12,.cls-14,.cls-15,.cls-16,.cls-17,.cls-2,.cls-8,.cls-9{fill:none;stroke:#ee741e;stroke-miterlimit:10}.cls-2{stroke-width:.93px}.cls-8,.cls-9{stroke-width:.94px}.cls-12,.cls-14,.cls-15{stroke-width:.95px}.cls-16{stroke-width:.98px}.cls-17{stroke-width:1px}.cls-18{fill:#ee741e}</style>
  </defs>
  <path
     class="cls-2"
     d="M561.56 286.96l394.6-2.79M561.56 295.34l395.53-.93M235.82 418.65v6.52l155.42 4.65v-6.58l-155.42-4.59zM325.16 396.32l-89.34 22.33M391.24 422.96l89.81-34.55M391.71 429.36l72.59-28.85M464.72 396.32v7.83h63.77v-7l-63.77-.83zM482.91 383.75v8.71M392.17 387.48l88.49.63"
     id="path3934" />
  <path
     class="cls-2"
     d="M351.91 375.61v-3.38l24.2-3.37v2.44l25.45.35a.12.12 0 010 .23L378 382.82l-33.5-4.65c-.16 0-.16-.9 0-.93l31.64-5.94"
     transform="translate(1.64)"
     id="path3936" />
  <path
     class="cls-2"
     d="M326.56 350.25v46.07h5.06v-2.31l9.83 1.84v3.72l3.72.93 8.38-2.79V379.31"
     id="path3938" />
  <path
     stroke-width=".89"
     stroke-miterlimit="10"
     stroke="#ee741e"
     fill="none"
     d="M340.99 369.79l-9.31-1.86v19.28l9.31 2.54v-19.96z"
     id="path3940" />
  <path
     class="cls-2"
     d="M347.86 367.93l33.83-4.65s4.66-17.68-11.16-16.75-22.07 3.47-22.67 12 0 9.4 0 9.4z"
     transform="translate(1.64)"
     id="path3942" />
  <path
     class="cls-2"
     d="M352.45 365.14l25.5-3.51s3.51-13.33-8.42-12.63-16.63 2.62-17.08 9 0 7.14 0 7.14zM358.43 322.33V340s-25.13-3.72-37.23 7.45l20.47 3.79s17.49-17.82 44.11-4.76"
     transform="translate(1.64)"
     id="path3944" />
  <path
     class="cls-2"
     d="M368.82 322.33v19.38"
     id="path3946" />
  <path
     class="cls-2"
     d="M355.63 314.88h13.54a.41.41 0 00.21-.76c-2.2-1.3-7.52-3.45-14.2.76"
     transform="translate(1.64)"
     id="path3948" />
  <path
     class="cls-2"
     d="M360.06 315.81l-1.91 6.52h12.06l-1.77-7.45"
     id="path3950" />
  <path
     class="cls-2"
     d="M383.55 380s.53 2.27 4 7.18.67 23.53.67 23.53h-5.88s3-15.93.72-21c-1.78-3.6-2.29-3.19-2.29-3.19s1.28 1.89 1.57 7.46a108.72 108.72 0 01-.64 13.94l-4.65.78v-20.29c0-5.59-1.86-1.86-8.38 1.86-7.44 7.44-.93 21.4-.93 21.4s-5.58.93-6.51.93c-3.72-17.68 0-25.12 4.65-27s4.66-3.72 4.66-3.72"
     transform="translate(1.64)"
     id="path3952" />
  <path
     class="cls-2"
     d="M339.59 306.51l217.78-.93v1.86l-217.78.98v-1.91zM339.59 306.51l92.14-35.37 129.36-.93"
     id="path3954" />
  <path
     class="cls-2"
     d="M562.95 217.16l-1.86 85.62h8.38l-4.16 3.73v5.89h-218.1v-3.98M407.53 370.72v-55.04h38.27l-1.06 55.04h-37.21z"
     id="path3956" />
  <path
     class="cls-2"
     d="M402.41 373.05v-57.37h48.05l-1.34 57.37h-46.71zM547.13 378.17l-151.7-2.79M553.36 312.4v70.5l138.03 3.65M536.22 389.34l151.44 4.65-1.56 2.33 49.96.46-2.16-7.03 18.91.69M535.97 396.32l149.83 4.18.3-4.18"
     id="path3958" />
  <path
     class="cls-2"
     d="M736.06 396.78l10-.46 2.78 9.36-218.46-7.97"
     id="path3960" />
  <path
     class="cls-2"
     d="M748.84 405.68v6.88l-218.46-8.33v-6.52l5.59-1.39.25-6.98 10.91-5.23v-5.94l-18.64 6.42v9.66l-49.3-1.93M617.86 264.63h-19.54v-35.37h19.54v35.37zM639.27 264.63H619.72v-35.37h19.55v35.37zM629.7 229.73v34.43M619.72 240.87h19.08M619.87 252.44l18.93.01M608.3 229.73v34.43M598.32 240.87h19.08M598.32 252.44l19.08.01M591.8 224.61l.93 2.79h51.97l1.08-2.79H591.8zM594.33 227.4v39.52h2.88V227.4M640.87 227.4v39.52h2.88V227.4M591.8 266.92h53.98v2.24l-53.98.53v-2.77zM730.77 261.78h-20.32v-35.36h20.32v35.36zM753.02 261.78H732.7v-35.36h20.32v35.36zM743.07 226.88v34.44M732.7 238.03h19.83M732.85 249.59l19.68.02M720.82 226.88v34.44M710.45 238.03h19.83M710.45 249.59l19.83.02M703.68 221.76l.96 2.8h54.02l1.13-2.8h-56.11zM706.31 224.56v39.51h2.99v-39.51M754.68 224.56v39.51h2.99v-39.51M703.68 264.07h56.11v2.24l-56.11.54v-2.78zM858.65 260.7h-22v-36.42h22v36.42zM882.75 260.7h-22v-36.42h22v36.42zM871.98 224.76v35.46M860.75 236.24h21.48M860.92 248.15l21.31.01M847.88 224.76v35.46M836.65 236.24h21.48M836.65 248.15l21.48.01M829.32 219.49l1.05 2.87h58.49l1.23-2.87h-60.77zM832.16 222.36v40.7h3.25v-40.7M884.55 222.36v40.7h3.24v-40.7M829.32 263.06h60.77v2.31l-60.77.55v-2.86zM735.13 314.88h18.61v41.88h-18.61zM744.43 314.88l.35 41.88M735.13 325.28h18.61M735.13 335.31h18.61M735.13 345.13h18.61M755.6 314.88h18.61v41.88H755.6zM764.91 314.88l.35 41.88M755.6 325.28h18.62M755.6 335.31h18.62M755.6 345.13h18.62"
     id="path3962" />
  <path
     class="cls-2"
     d="M732.34 313.02h44.67v45.6h-44.67zM596.23 314.75h16.39v38.89h-16.39zM604.43 314.75l.3 38.89M596.23 324.41h16.39M596.23 333.72h16.39M596.23 342.84h16.39M614.26 314.75h16.39v38.89h-16.39zM622.46 314.75l.3 38.89M614.26 324.41h16.39M614.26 333.72h16.39M614.26 342.84h16.39"
     id="path3964" />
  <path
     class="cls-2"
     d="M594.6 313.02h37.69v42.35H594.6zM855.29 317.67h19.63v41.88h-19.63zM865.1 317.67l.36 41.89M855.29 328.08h19.62M855.29 338.11h19.62M855.29 347.92h19.62M876.87 317.67h19.63v41.88h-19.63zM886.69 317.67l.36 41.89M876.87 328.08h19.63M876.87 338.11h19.63M876.87 347.92h19.63"
     id="path3966" />
  <path
     class="cls-2"
     d="M853.32 315.81h45.14v45.6h-45.14zM696.97 313.95h22.34v49.33h-22.34z"
     id="path3968" />
  <path
     class="cls-2"
     d="M692.32 310.23h31.64v67.94h-31.64zM692.32 378.17h31.64v8.38h-31.64zM695.06 386.55l-3.67 4.78 27.92-.13-1.63-4.65M730.47 306.51h13.03v4.65h-13.03z"
     id="path3970" />
  <circle
     class="cls-2"
     cx="722.1"
     cy="340.01"
     r=".93"
     id="circle3972" />
  <path
     class="cls-2"
     d="m 720.46,342.8 v 1.87 c 0,0.51362 -0.41638,0.93 -0.93,0.93 h -4.65 l 0.0998,-0.94 H 720.46"
     id="path3974"
     transform="translate(1.64)"
     style="fill:none;stroke:#ee741e;stroke-width:0.93000001px;stroke-miterlimit:10"/>
  <path
     class="cls-2"
     d="M688.65 386.47v-79.96h39.27v82.43"
     id="path3976" />
  <path
     class="cls-2"
     d="M751.3 373.52h14.34a.09.09 0 01.08.14c-.9 1.08-6.79 7.51-14.46-.05a.05.05 0 01.04-.09z"
     transform="translate(1.64)"
     id="path3978" />
  <path
     class="cls-2"
     d="M765.83 373.52s.23 1.86-.7 18.61c-8.37 4.65-14-1.69-14-1.69v-16.92"
     transform="translate(1.64)"
     id="path3980" />
  <path
     class="cls-2"
     d="M385.26 346.49v24.91M345.17 351.18v48.86"
     id="path3982" />
  <path
     class="cls-2"
     d="M749.31 185.52L904.73 179l79.11 14.89L816 199.48l-294.52 8.37 52-16.7 157.81-4.6"
     transform="translate(1.64)"
     id="path3984" />
  <path
     stroke-width="1.03"
     stroke-miterlimit="10"
     stroke="#ee741e"
     fill="none"
     d="M732.8 156.42l17.02.25 1.13 32.57H732.8v-32.82z"
     id="path3986" />
  <path
     class="cls-2"
     d="M526.66 210.65v4.73l458.82-14.08v-4.27l-458.82 13.62z"
     id="path3988" />
  <path
     class="cls-2"
     d="M961.16 202.04l24.32 5.81 6.52-13.02-9.64-1.52M522.93 207.85v8.95l3.73 1.57v4.55l18.94-7.53M569.47 302.78l387.16-.93-1.86-99.58"
     id="path3990" />
  <path
     class="cls-2"
     d="M947.54 301.85c.39.93-.38 94.93-.38 94.93l-182-4.65"
     transform="translate(1.64)"
     id="path3992" />
  <path
     class="cls-2"
     d="M939.88 396.78l.93 13.03-165.11-3.43M956.69 288.36l103.93 27.45-2.99 8.6-101.13-28.37M1028.18 316.74l6.63 89.35-49.33 1.78M1031.15 405.84v10.14M562.84 222.36l391.86-9.53M561.56 275.79l394.07-2.47M562.68 229.73l31.45-.47M643.75 229.26l62.99-.93M757.67 226.88l73.91-2.12M887.79 224.28l66.91-1.92M562.68 239.03l31.45-.46M643.75 238.57l62.99-.93M757.67 236.19l73.91-2.12M887.79 233.59l66.91-1.92M562.68 250.2l31.45-.46M643.75 249.74l62.99-.94M757.67 247.36l73.91-2.13M887.79 244.76l66.91-1.92M562.68 260.44l31.45-.47M643.75 259.97l62.99-.93M757.67 257.6l73.91-2.13M887.79 254.99l66.91-1.91"
     id="path3994" />
  <path
     stroke-width=".92"
     stroke-miterlimit="10"
     stroke="#ee741e"
     fill="none"
     d="M561.75 268.81l30.52-.46M645.32 268.35l184.27-2.79"
     id="path3996" />
  <path
     stroke-width=".91"
     stroke-miterlimit="10"
     stroke="#ee741e"
     fill="none"
     d="M890.09 263.37l64.61-1.92"
     id="path3998" />
  <path
     class="cls-2"
     d="M574.06 302.78v80.62M580.32 302.78v80.47M587.43 302.74v80.66M559.84 312.56v70.69M566.96 305.11v78.29M634.55 302.78l.06 82.37M640.81 302.78v82.37M647.93 302.74v82.41M655.03 302.78v83.3M661.29 302.78v83.3M668.4 302.74v83.34M674.57 302.78v83.3M680.83 302.78v83.3M594.53 355.38v28.84M600.79 355.38v28.78M607.91 355.37v28.85M615.01 355.38v28.84M621.27 355.38v28.78M628.1 355.37v29.78M594.53 302.75v9.81M600.79 302.75v9.79M607.91 302.74v9.82M615.01 302.75v9.81M621.27 302.75v9.79M628.38 302.74v9.82M802.07 301.86v90.73"
     id="path4000" />
  <path
     class="cls-8"
     d="M808.33 301.86v91.49M815.45 301.81v91.72M822.55 301.86v91.67"
     id="path4002" />
  <path
     class="cls-9"
     d="M828.81 301.86v91.67"
     id="path4004" />
  <path
     class="cls-8"
     d="M835.92 301.81v91.72"
     id="path4006" />
  <path
     stroke-width=".94"
     stroke-miterlimit="10"
     stroke="#ee741e"
     fill="none"
     d="M842.09 301.86v91.67"
     id="path4008" />
  <path
     class="cls-9"
     d="M848.35 301.86v91.67"
     id="path4010" />
  <path
     class="cls-2"
     d="M855.47 301.81v13.54M780.67 302.32v90.27M787.86 302.32v90.11M794.97 302.32v90.27M755.54 358.16v14.89M762.73 358.18v14.87M769.84 359.09v32.57M775.08 359.11v33.48M734.14 359.09v30.71M741.33 359.09v30.66M748.44 358.16v31.64M757.4 302.32v10.24M764.59 302.32v10.24M771.71 302.62v10.57M736 302.62v3.42M743.19 302.62v4.35M750.3 302.32v10.26M882.11 301.82v13.53M888.37 301.82v13.5M895.49 301.81v13.54M902.59 301.86v93.53M908.85 301.86v93.35M915.96 301.81v93.58M922.13 301.86v94.46M928.39 301.86v94.28M935.51 301.81v94.51M943.88 301.81v94.51M861.64 301.96v13.39M867.9 301.96v13.36M875.01 301.95v13.4"
     id="path4012" />
  <path
     stroke-width=".95"
     stroke-miterlimit="10"
     stroke="#ee741e"
     fill="none"
     d="M855.47 360.95v33.51"
     id="path4014" />
  <path
     class="cls-12"
     d="M882.11 361.9v33.49"
     id="path4016" />
  <path
     stroke-width=".95"
     stroke-miterlimit="10"
     stroke="#ee741e"
     fill="none"
     d="M888.37 361.88v33.45"
     id="path4018" />
  <path
     class="cls-12"
     d="M895.49 361.88v33.51"
     id="path4020" />
  <path
     class="cls-14"
     d="M861.64 360.97v33.49M867.9 360.97v33.42M875.01 360.95v33.51"
     id="path4022" />
  <path
     class="cls-2"
     d="M516.82 364.18v-7.39s3.72-4.71 7.45-4.71 6.51 2.79 5.58 4.66-.93 7.44-.93 7.44a15.35 15.35 0 01-12.1 0z"
     transform="translate(1.64)"
     id="path4024" />
  <path
     class="cls-2"
     d="M516.82 365.42V377s6.52 2.09 12.1.23v-13M523.43 363s2.7.3 2.7-.63-1.68-2.49-2.7-1.71 0 2.34 0 2.34z"
     transform="translate(1.64)"
     id="path4026" />
  <path
     class="cls-15"
     d="M407.53 358.53h37.44M374.65 313.02v29.24M382.56 312.4v32.03M390.91 312.56v58.9M399.29 312.56v58.9"
     id="path4028" />
  <path
     class="cls-2"
     d="M454.99 312.09l-1.72 63.75M463.37 313.02l-1.73 63.75"
     id="path4030" />
  <path
     class="cls-16"
     d="M480.12 313.02l-1.72 63.75M471.75 313.02l-1.73 63.75M489.43 313.02l-1.73 63.75"
     id="path4032" />
  <path
     class="cls-17"
     d="M497.81 312.56l-1.73 65.14M514.56 312.56l-1.73 65.14M506.18 312.56l-1.73 65.14"
     id="path4034" />
  <path
     class="cls-2"
     d="M521.7 312.4v41.24M530.38 312.4l-.5 40.88M537.35 312.4l-1.13 65.3M545.89 312.09l-1.71 66.02M552.01 312.4v70.85l1.99-.33M960.96 297.29l1.25 87.86M975.68 301.42l-.44 93.04M990.45 305.56v102.31M1004.09 309.3l1.87 98.19M1016.51 313.01l3.41 94.01"
     id="path4036" />
  <path
     class="cls-2"
     d="M946 414.88q-3.35-10.53-6.36-21.17c4.91 5.55 5.88 13.66 10.36 19.56l-3.44-19.6a3.29 3.29 0 01.27-2.59c1.35 1.32 1.7 3.33 2.06 5.18a82.64 82.64 0 004.21 14.63 3 3 0 001.51 1.94c1.26-7.83-.92-15.83-.32-23.74.55 7.4 1.13 14.89 3.38 22a6.86 6.86 0 00.91-2.43l3-12.65a142 142 0 01-1.91 16.43l5.72-13c.82 4.36-1.47 8.78-1.09 13.21 1.13-1 1.53-2.57 2-4a25.27 25.27 0 014.37-8L967.14 415q4.1-5.27 8.52-10.26c.77 3.36-2 6.57-2 10l6.72-7.18c.75 1.66-.51 3.5-.8 5.3a1.58 1.58 0 000 .78c.35.94 1.73.7 2.68.35a13 13 0 016.58-.85c1.41.23 2.76.77 4.16 1.05a5.59 5.59 0 004.16-.49M944.75 412.93c-1.78-1.88-2.28-4.64-3.82-6.73-.41-.56-1.08-1.11-1.73-.85s-.73 1.14-.71 1.85l.08 2.86c0 .54 0 1.17-.48 1.45a1.19 1.19 0 01-.79.1 6.29 6.29 0 01-1.59-.66 2.57 2.57 0 00-1.66-.32 1.12 1.12 0 00-.9 1.26 1.54 1.54 0 001.14.86 14.76 14.76 0 005.18.22c-1.48.42-3.07.25-4.56.61a30.28 30.28 0 00-2.93 1.09c-2.94 1-6.17.74-9.27.44"
     transform="translate(1.64)"
     id="path4038" />
  <path
     class="cls-2"
     d="M947.83 414.31a33.48 33.48 0 01-1.49-6.59l-1.42-9.13c.32 0 .56.29.73.58a25.08 25.08 0 012.5 5.16c.41 1.35.59 2.77 1 4.11.54 1.66 1.48 3.2 1.73 4.93.29-5.67.6-11.35 1.38-17q1.37 5.67 2.47 11.4c.35 1.82.73 3.74 2 5.1 2-4.4 2.17-9.35 2.35-14.17.29 2.29.2 4.62.33 6.92a14.84 14.84 0 001.68 6.66 27.13 27.13 0 003.15-9.25l-.47 7.9a9.64 9.64 0 00.09 2.63 3.53 3.53 0 001.77-1.76c1.25-2.22 2-4.8 3.77-6.6a59.09 59.09 0 00-1.52 9.25 6.7 6.7 0 002-2.44q1.43-2.43 2.82-4.87a55.44 55.44 0 01-1 7.48M977.47 408.1a30.9 30.9 0 004.12-7.81c.46.54.94 1.06 1.45 1.55a2.82 2.82 0 001.11.74 1.67 1.67 0 001.89-1.21 2.37 2.37 0 00-.73-2.25 4.14 4.14 0 00-2.23-1 5.93 5.93 0 002.69-1.92 2 2 0 00-.55-2.91 2.22 2.22 0 00-2.24.53 4.05 4.05 0 00-1.4 2.76 3.16 3.16 0 00-1.69-1.44 2.62 2.62 0 00-2.58 1.51 2.39 2.39 0 00-.41 1.36 2 2 0 001.59 1.59 5.74 5.74 0 002.4-.14"
     transform="translate(1.64)"
     id="path4040" />
  <path
     class="cls-2"
     d="M971.64 406.82a43.28 43.28 0 003.46-8.65 4.59 4.59 0 01.75-1.93c.22-.26.49-.46.72-.7a2.81 2.81 0 00.78-2 1.32 1.32 0 00-.14-.65c-.4-.65-1.4-.42-2 0a5.88 5.88 0 00-2 2.5 3.57 3.57 0 00-2.72-1.69 1.63 1.63 0 00-1.62.65c-.39.71.16 1.59.81 2.07a4.73 4.73 0 003.82.81"
     transform="translate(1.64)"
     id="path4042" />
  <path
     class="cls-2"
     d="M963.59 401.9c.53-2.47 2.15-4.58 2.73-7a22.71 22.71 0 01.71-3.17c.31-.76.83-1.57.56-2.35a1.6 1.6 0 00-2.39-.56 2.69 2.69 0 00-.88 2.57 2.07 2.07 0 00-2.62-.2 1.6 1.6 0 000 2.46c.83.56 1.94.07 2.82-.42l3.11-1.75a4.1 4.1 0 011.33-.56 1.39 1.39 0 011.31.43c.54.7 0 1.71-.7 2.25a3 3 0 01-2 .72A1.76 1.76 0 01966 393M959 400.58l.28-10a2.13 2.13 0 002.34-1.35 6.17 6.17 0 00.29-2.9 2.41 2.41 0 00-.22-1 .83.83 0 00-.86-.46 1.07 1.07 0 00-.53.41 5.66 5.66 0 00-.66 3.71 6.35 6.35 0 00-2.21-3.3c-.3-.22-.74-.41-1-.15a.81.81 0 00-.13.63 6 6 0 001.75 3.57 1.37 1.37 0 00-1.49-1.16 2.6 2.6 0 00-1.75 1.07 1 1 0 00-.27.94 1 1 0 00.73.48 6.5 6.5 0 003.19 0M749.35 407.26q-1.61-3.75-2.83-7.64a17.35 17.35 0 012.34 6.77c.72-2.11.18-4.69 1.58-6.43l.29 7.35a19.69 19.69 0 013-5.28 6.47 6.47 0 01-1.31 2.32 3.32 3.32 0 00-.77 2.49 27.28 27.28 0 015.82-2.08l-1.28 2.39a4.22 4.22 0 011.4-1.64 1.47 1.47 0 012 .31c.11.18.16.38.28.55.4.59 1.31.48 1.93.13a6.34 6.34 0 011.85-1c.89-.18 1.75.37 2.66.49 1.25.18 2.51-.47 3.77-.31.76.1 1.46.49 2.22.65 1.93.39 3.9-.78 5.86-.55a19.88 19.88 0 012.71.77 14.72 14.72 0 003 .38l5.11.29"
     transform="translate(1.64)"
     id="path4044" />
  <path
     d="M683 282.77h60.29a.18.18 0 01.18.18v10.11a5.4 5.4 0 01-5.4 5.4H677.5a.18.18 0 01-.18-.18v-9.8a5.71 5.71 0 015.68-5.71z"
     stroke-width="1.4"
     stroke="#ed7320"
     stroke-miterlimit="10"
     fill="#fff"
     id="path4094" />
  <path
     class="cls-18"
     d="M678.29 288.52h.76l1 3.19 1-3.19h.76l-1.45 4.39h-.61zM682.29 288.52h.71v.72h-.72zm0 1.26h.71v3.13h-.72zM683.87 289.78h.72v3.13h-.72zm1.86 1.23a.59.59 0 00-.15-.43.56.56 0 00-.43-.16.53.53 0 00-.41.15.52.52 0 00-.15.4l-.06-.65a1.06 1.06 0 01.36-.44.85.85 0 01.51-.15 1 1 0 01.78.33 1.49 1.49 0 01.27.95v1.9h-.72zM686.91 293.5h.27a.2.2 0 00.15-.06.24.24 0 000-.18v-3.48h.73v3.58a.88.88 0 01-.2.61.74.74 0 01-.57.22h-.43zm.47-5h.73v.72h-.73zM689.55 292.8a1.11 1.11 0 01-.48-.48 1.65 1.65 0 01-.17-.77v-.35a1.78 1.78 0 01.16-.8 1.17 1.17 0 01.46-.5 1.54 1.54 0 01.73-.17 1.19 1.19 0 01.69.2 1.3 1.3 0 01.44.58 2.53 2.53 0 01.15.92v.21h-2.14v-.53h1.47a1 1 0 00-.18-.52.53.53 0 00-.42-.18.61.61 0 00-.5.21.84.84 0 00-.18.58v.4a.75.75 0 00.19.55.78.78 0 00.55.19 1.09 1.09 0 00.35-.07 1.08 1.08 0 00.31-.19l.48.44a1.73 1.73 0 01-.54.35 1.73 1.73 0 01-1.36 0zM692.93 292.91a2.36 2.36 0 01-.47-.16 1.6 1.6 0 01-.4-.25l.43-.54a1.89 1.89 0 00.49.25 1.46 1.46 0 00.49.09 1.09 1.09 0 00.5-.09.28.28 0 00.17-.26.24.24 0 00-.08-.19.4.4 0 00-.22-.09l-.36-.05h-.21a2.82 2.82 0 01-.54-.11.68.68 0 01-.36-.25.88.88 0 01-.14-.53 1 1 0 01.14-.54 1 1 0 01.42-.34 2 2 0 01.69-.11 1.83 1.83 0 01.47 0 2.23 2.23 0 01.44.13 3.11 3.11 0 01.4.22l-.44.53a1.58 1.58 0 00-.44-.2 1.39 1.39 0 00-.44-.07 1 1 0 00-.43.08.27.27 0 00-.15.24.19.19 0 00.08.16.44.44 0 00.21.07l.35.05h.14a2.66 2.66 0 01.58.1.77.77 0 01.39.26.89.89 0 01.16.58 1 1 0 01-.15.56.88.88 0 01-.45.34 2 2 0 01-.73.12 3.1 3.1 0 01-.54 0zM697.25 289.78h.75l-1.18 3.13h-.53l-1.18-3.13h.74l.7 2.1zM698.51 288.52h.72v.72h-.72zm0 1.26h.72v3.13h-.72zM700.09 289.78h.72v3.13h-.72zM702 291a.59.59 0 00-.15-.43.56.56 0 00-.43-.16.53.53 0 00-.41.15.52.52 0 00-.15.4l-.06-.65a1.06 1.06 0 01.36-.44.84.84 0 01.5-.15 1 1 0 01.78.33 1.44 1.44 0 01.28.95v1.9H702zM704 292.81a1 1 0 01-.37-.45 1.88 1.88 0 01-.12-.71v-.6a1.94 1.94 0 01.12-.72.91.91 0 01.36-.45 1.06 1.06 0 01.57-.16.86.86 0 01.49.15 1 1 0 01.35.42l-.06.67a.59.59 0 00-.07-.31.37.37 0 00-.18-.19.62.62 0 00-.71.1.74.74 0 00-.15.49v.6a.69.69 0 00.15.48.62.62 0 00.71.1.41.41 0 00.18-.19.62.62 0 00.07-.31v.69a.82.82 0 01-.8.55 1.07 1.07 0 01-.54-.16zm0 1.25a1.1 1.1 0 01-.45-.37l.49-.45a.71.71 0 00.27.22.8.8 0 00.33.08.69.69 0 00.49-.17.61.61 0 00.18-.47v-3.12h.69v3a1.53 1.53 0 01-.16.74 1.12 1.12 0 01-.47.47 1.6 1.6 0 01-.75.16 1.51 1.51 0 01-.62-.09zM707.45 292.8a1.14 1.14 0 01-.49-.48 1.65 1.65 0 01-.16-.77v-.35a1.78 1.78 0 01.16-.8 1.12 1.12 0 01.46-.5 1.49 1.49 0 01.73-.17 1.19 1.19 0 01.69.2 1.29 1.29 0 01.43.58 2.53 2.53 0 01.15.92v.21h-2.13v-.53h1.46a.9.9 0 00-.19-.52.51.51 0 00-.41-.18.64.64 0 00-.51.21.89.89 0 00-.17.58v.4a.75.75 0 00.19.55.77.77 0 00.54.19 1.15 1.15 0 00.36-.07 1.23 1.23 0 00.31-.19l.47.44a1.73 1.73 0 01-.54.35 1.53 1.53 0 01-.6.12 1.57 1.57 0 01-.75-.19zM710.21 289.78h.72v3.13h-.72zm1.86 1.23a.59.59 0 00-.15-.43.56.56 0 00-.43-.16.53.53 0 00-.41.15.52.52 0 00-.15.4l-.06-.65a1.06 1.06 0 01.36-.44.85.85 0 01.51-.15 1 1 0 01.78.33 1.49 1.49 0 01.27.95v1.9h-.72zM718.72 288.52h.73v4.39h-.73zm.39 1.88h2.5v.69h-2.5zm2.07-1.88h.72v4.39h-.72zM723 292.72a.92.92 0 01-.27-.73.88.88 0 01.27-.7 1.25 1.25 0 01.82-.23h.84v.56h-.88a.47.47 0 00-.32.09.32.32 0 00-.11.28.33.33 0 00.14.29.76.76 0 00.42.1 1.29 1.29 0 00.51-.08.25.25 0 00.17-.23l.06.44a.49.49 0 01-.18.25.75.75 0 01-.31.15 1.6 1.6 0 01-.39 0 1.17 1.17 0 01-.77-.19zm1.63-1.8a.49.49 0 00-.16-.4.6.6 0 00-.44-.15 1 1 0 00-.35.06 1.07 1.07 0 00-.32.16l-.48-.41a1.21 1.21 0 01.48-.33 1.81 1.81 0 01.67-.12 1.55 1.55 0 01.68.14 1 1 0 01.44.4 1.22 1.22 0 01.15.63v2h-.67zM726.16 289.78h.73v3.13h-.73zM728 291a.6.6 0 00-.16-.43.54.54 0 00-.43-.16.5.5 0 00-.55.55l-.07-.65a1.24 1.24 0 01.36-.44.9.9 0 01.51-.15 1 1 0 01.78.33 1.49 1.49 0 01.28.95v1.9H728zM730 292.81a.93.93 0 01-.37-.45 1.87 1.87 0 01-.13-.71v-.6a1.93 1.93 0 01.13-.72.91.91 0 01.36-.45 1.06 1.06 0 01.57-.16.86.86 0 01.49.15 1.13 1.13 0 01.35.42l-.07.67a.71.71 0 00-.06-.31.37.37 0 00-.18-.19.56.56 0 00-.3-.07.51.51 0 00-.41.17.74.74 0 00-.15.49v.6a.69.69 0 00.15.48.51.51 0 00.41.17.56.56 0 00.3-.07.41.41 0 00.18-.19.75.75 0 00.06-.31v.69a1 1 0 01-.3.4.84.84 0 01-.5.15 1.07 1.07 0 01-.53-.16zm1.33-4.29h.73v4.39h-.73zM733.52 292.8a1.11 1.11 0 01-.48-.48 1.65 1.65 0 01-.17-.77v-.35a1.93 1.93 0 01.16-.8 1.14 1.14 0 01.47-.5 1.49 1.49 0 01.73-.17 1.19 1.19 0 01.68.2 1.24 1.24 0 01.44.58 2.53 2.53 0 01.15.92v.21h-2.13v-.53h1.46a1 1 0 00-.19-.52.51.51 0 00-.41-.18.64.64 0 00-.51.21.84.84 0 00-.18.58v.4a.76.76 0 00.2.55.77.77 0 00.54.19 1 1 0 00.35-.07 1.29 1.29 0 00.32-.19l.47.44a1.73 1.73 0 01-.54.35 1.73 1.73 0 01-1.36 0zM737 292a.24.24 0 00.06.18.21.21 0 00.16.06h.22v.69h-.4a.73.73 0 01-.56-.21.86.86 0 01-.2-.62v-3.57h.72z"
     transform="translate(1.64)"
     id="path4096" />
  <path
     d="M720.79 282.77c-.18.63-.55 1.78-1.29 3.67-1.24 3.19-3 5.09-2.47 7.14s2 3 4.82 3.84a45.51 45.51 0 004.73 1.05l-.74-.13"
     stroke="#ed7320"
     stroke-width=".93"
     stroke-miterlimit="10"
     fill="none"
     id="path4098" />
  <rect
     style="fill:#ffffff"
     id="rect4643"
     width="49.513657"
     height="86.249596"
     x="117.39529"
     y="36.21896" />
</svg>
